G04 #@! TF.GenerationSoftware,KiCad,Pcbnew,(5.1.5)-3*
G04 #@! TF.CreationDate,2021-07-01T18:35:26+03:00*
G04 #@! TF.ProjectId,ISARPi,49534152-5069-42e6-9b69-6361645f7063,rev?*
G04 #@! TF.SameCoordinates,Original*
G04 #@! TF.FileFunction,Soldermask,Bot*
G04 #@! TF.FilePolarity,Negative*
%FSLAX46Y46*%
G04 Gerber Fmt 4.6, Leading zero omitted, Abs format (unit mm)*
G04 Created by KiCad (PCBNEW (5.1.5)-3) date 2021-07-01 18:35:26*
%MOMM*%
%LPD*%
G04 APERTURE LIST*
%ADD10C,0.100000*%
G04 APERTURE END LIST*
D10*
G36*
X92713000Y-93861000D02*
G01*
X91087000Y-93861000D01*
X91087000Y-86901000D01*
X92713000Y-86901000D01*
X92713000Y-93861000D01*
G37*
G36*
X130813000Y-93861000D02*
G01*
X129187000Y-93861000D01*
X129187000Y-86901000D01*
X130813000Y-86901000D01*
X130813000Y-93861000D01*
G37*
G36*
X168913000Y-93861000D02*
G01*
X167287000Y-93861000D01*
X167287000Y-86901000D01*
X168913000Y-86901000D01*
X168913000Y-93861000D01*
G37*
G36*
X163833000Y-93861000D02*
G01*
X162207000Y-93861000D01*
X162207000Y-86901000D01*
X163833000Y-86901000D01*
X163833000Y-93861000D01*
G37*
G36*
X161293000Y-93861000D02*
G01*
X159667000Y-93861000D01*
X159667000Y-86901000D01*
X161293000Y-86901000D01*
X161293000Y-93861000D01*
G37*
G36*
X158753000Y-93861000D02*
G01*
X157127000Y-93861000D01*
X157127000Y-86901000D01*
X158753000Y-86901000D01*
X158753000Y-93861000D01*
G37*
G36*
X156213000Y-93861000D02*
G01*
X154587000Y-93861000D01*
X154587000Y-86901000D01*
X156213000Y-86901000D01*
X156213000Y-93861000D01*
G37*
G36*
X153673000Y-93861000D02*
G01*
X152047000Y-93861000D01*
X152047000Y-86901000D01*
X153673000Y-86901000D01*
X153673000Y-93861000D01*
G37*
G36*
X151133000Y-93861000D02*
G01*
X149507000Y-93861000D01*
X149507000Y-86901000D01*
X151133000Y-86901000D01*
X151133000Y-93861000D01*
G37*
G36*
X148593000Y-93861000D02*
G01*
X146967000Y-93861000D01*
X146967000Y-86901000D01*
X148593000Y-86901000D01*
X148593000Y-93861000D01*
G37*
G36*
X146053000Y-93861000D02*
G01*
X144427000Y-93861000D01*
X144427000Y-86901000D01*
X146053000Y-86901000D01*
X146053000Y-93861000D01*
G37*
G36*
X143513000Y-93861000D02*
G01*
X141887000Y-93861000D01*
X141887000Y-86901000D01*
X143513000Y-86901000D01*
X143513000Y-93861000D01*
G37*
G36*
X140973000Y-93861000D02*
G01*
X139347000Y-93861000D01*
X139347000Y-86901000D01*
X140973000Y-86901000D01*
X140973000Y-93861000D01*
G37*
G36*
X138433000Y-93861000D02*
G01*
X136807000Y-93861000D01*
X136807000Y-86901000D01*
X138433000Y-86901000D01*
X138433000Y-93861000D01*
G37*
G36*
X135893000Y-93861000D02*
G01*
X134267000Y-93861000D01*
X134267000Y-86901000D01*
X135893000Y-86901000D01*
X135893000Y-93861000D01*
G37*
G36*
X133353000Y-93861000D02*
G01*
X131727000Y-93861000D01*
X131727000Y-86901000D01*
X133353000Y-86901000D01*
X133353000Y-93861000D01*
G37*
G36*
X128273000Y-93861000D02*
G01*
X126647000Y-93861000D01*
X126647000Y-86901000D01*
X128273000Y-86901000D01*
X128273000Y-93861000D01*
G37*
G36*
X95253000Y-93861000D02*
G01*
X93627000Y-93861000D01*
X93627000Y-86901000D01*
X95253000Y-86901000D01*
X95253000Y-93861000D01*
G37*
G36*
X97793000Y-93861000D02*
G01*
X96167000Y-93861000D01*
X96167000Y-86901000D01*
X97793000Y-86901000D01*
X97793000Y-93861000D01*
G37*
G36*
X100333000Y-93861000D02*
G01*
X98707000Y-93861000D01*
X98707000Y-86901000D01*
X100333000Y-86901000D01*
X100333000Y-93861000D01*
G37*
G36*
X102873000Y-93861000D02*
G01*
X101247000Y-93861000D01*
X101247000Y-86901000D01*
X102873000Y-86901000D01*
X102873000Y-93861000D01*
G37*
G36*
X105413000Y-93861000D02*
G01*
X103787000Y-93861000D01*
X103787000Y-86901000D01*
X105413000Y-86901000D01*
X105413000Y-93861000D01*
G37*
G36*
X107953000Y-93861000D02*
G01*
X106327000Y-93861000D01*
X106327000Y-86901000D01*
X107953000Y-86901000D01*
X107953000Y-93861000D01*
G37*
G36*
X110493000Y-93861000D02*
G01*
X108867000Y-93861000D01*
X108867000Y-86901000D01*
X110493000Y-86901000D01*
X110493000Y-93861000D01*
G37*
G36*
X115573000Y-93861000D02*
G01*
X113947000Y-93861000D01*
X113947000Y-86901000D01*
X115573000Y-86901000D01*
X115573000Y-93861000D01*
G37*
G36*
X118113000Y-93861000D02*
G01*
X116487000Y-93861000D01*
X116487000Y-86901000D01*
X118113000Y-86901000D01*
X118113000Y-93861000D01*
G37*
G36*
X120653000Y-93861000D02*
G01*
X119027000Y-93861000D01*
X119027000Y-86901000D01*
X120653000Y-86901000D01*
X120653000Y-93861000D01*
G37*
G36*
X123193000Y-93861000D02*
G01*
X121567000Y-93861000D01*
X121567000Y-86901000D01*
X123193000Y-86901000D01*
X123193000Y-93861000D01*
G37*
G36*
X125733000Y-93861000D02*
G01*
X124107000Y-93861000D01*
X124107000Y-86901000D01*
X125733000Y-86901000D01*
X125733000Y-93861000D01*
G37*
G36*
X166373000Y-93861000D02*
G01*
X164747000Y-93861000D01*
X164747000Y-86901000D01*
X166373000Y-86901000D01*
X166373000Y-93861000D01*
G37*
G36*
X113033000Y-93861000D02*
G01*
X111407000Y-93861000D01*
X111407000Y-86901000D01*
X113033000Y-86901000D01*
X113033000Y-93861000D01*
G37*
G36*
X132393512Y-68743927D02*
G01*
X132542812Y-68773624D01*
X132706784Y-68841544D01*
X132854354Y-68940147D01*
X132979853Y-69065646D01*
X133078456Y-69213216D01*
X133146376Y-69377188D01*
X133181000Y-69551259D01*
X133181000Y-69728741D01*
X133146376Y-69902812D01*
X133078456Y-70066784D01*
X132979853Y-70214354D01*
X132854354Y-70339853D01*
X132706784Y-70438456D01*
X132542812Y-70506376D01*
X132393512Y-70536073D01*
X132368742Y-70541000D01*
X132191258Y-70541000D01*
X132166488Y-70536073D01*
X132017188Y-70506376D01*
X131853216Y-70438456D01*
X131705646Y-70339853D01*
X131580147Y-70214354D01*
X131481544Y-70066784D01*
X131413624Y-69902812D01*
X131379000Y-69728741D01*
X131379000Y-69551259D01*
X131413624Y-69377188D01*
X131481544Y-69213216D01*
X131580147Y-69065646D01*
X131705646Y-68940147D01*
X131853216Y-68841544D01*
X132017188Y-68773624D01*
X132166488Y-68743927D01*
X132191258Y-68739000D01*
X132368742Y-68739000D01*
X132393512Y-68743927D01*
G37*
G36*
X134933512Y-68743927D02*
G01*
X135082812Y-68773624D01*
X135246784Y-68841544D01*
X135394354Y-68940147D01*
X135519853Y-69065646D01*
X135618456Y-69213216D01*
X135686376Y-69377188D01*
X135721000Y-69551259D01*
X135721000Y-69728741D01*
X135686376Y-69902812D01*
X135618456Y-70066784D01*
X135519853Y-70214354D01*
X135394354Y-70339853D01*
X135246784Y-70438456D01*
X135082812Y-70506376D01*
X134933512Y-70536073D01*
X134908742Y-70541000D01*
X134731258Y-70541000D01*
X134706488Y-70536073D01*
X134557188Y-70506376D01*
X134393216Y-70438456D01*
X134245646Y-70339853D01*
X134120147Y-70214354D01*
X134021544Y-70066784D01*
X133953624Y-69902812D01*
X133919000Y-69728741D01*
X133919000Y-69551259D01*
X133953624Y-69377188D01*
X134021544Y-69213216D01*
X134120147Y-69065646D01*
X134245646Y-68940147D01*
X134393216Y-68841544D01*
X134557188Y-68773624D01*
X134706488Y-68743927D01*
X134731258Y-68739000D01*
X134908742Y-68739000D01*
X134933512Y-68743927D01*
G37*
G36*
X140013512Y-68743927D02*
G01*
X140162812Y-68773624D01*
X140326784Y-68841544D01*
X140474354Y-68940147D01*
X140599853Y-69065646D01*
X140698456Y-69213216D01*
X140766376Y-69377188D01*
X140801000Y-69551259D01*
X140801000Y-69728741D01*
X140766376Y-69902812D01*
X140698456Y-70066784D01*
X140599853Y-70214354D01*
X140474354Y-70339853D01*
X140326784Y-70438456D01*
X140162812Y-70506376D01*
X140013512Y-70536073D01*
X139988742Y-70541000D01*
X139811258Y-70541000D01*
X139786488Y-70536073D01*
X139637188Y-70506376D01*
X139473216Y-70438456D01*
X139325646Y-70339853D01*
X139200147Y-70214354D01*
X139101544Y-70066784D01*
X139033624Y-69902812D01*
X138999000Y-69728741D01*
X138999000Y-69551259D01*
X139033624Y-69377188D01*
X139101544Y-69213216D01*
X139200147Y-69065646D01*
X139325646Y-68940147D01*
X139473216Y-68841544D01*
X139637188Y-68773624D01*
X139786488Y-68743927D01*
X139811258Y-68739000D01*
X139988742Y-68739000D01*
X140013512Y-68743927D01*
G37*
G36*
X112073512Y-68743927D02*
G01*
X112222812Y-68773624D01*
X112386784Y-68841544D01*
X112534354Y-68940147D01*
X112659853Y-69065646D01*
X112758456Y-69213216D01*
X112826376Y-69377188D01*
X112861000Y-69551259D01*
X112861000Y-69728741D01*
X112826376Y-69902812D01*
X112758456Y-70066784D01*
X112659853Y-70214354D01*
X112534354Y-70339853D01*
X112386784Y-70438456D01*
X112222812Y-70506376D01*
X112073512Y-70536073D01*
X112048742Y-70541000D01*
X111871258Y-70541000D01*
X111846488Y-70536073D01*
X111697188Y-70506376D01*
X111533216Y-70438456D01*
X111385646Y-70339853D01*
X111260147Y-70214354D01*
X111161544Y-70066784D01*
X111093624Y-69902812D01*
X111059000Y-69728741D01*
X111059000Y-69551259D01*
X111093624Y-69377188D01*
X111161544Y-69213216D01*
X111260147Y-69065646D01*
X111385646Y-68940147D01*
X111533216Y-68841544D01*
X111697188Y-68773624D01*
X111846488Y-68743927D01*
X111871258Y-68739000D01*
X112048742Y-68739000D01*
X112073512Y-68743927D01*
G37*
G36*
X101913512Y-68743927D02*
G01*
X102062812Y-68773624D01*
X102226784Y-68841544D01*
X102374354Y-68940147D01*
X102499853Y-69065646D01*
X102598456Y-69213216D01*
X102666376Y-69377188D01*
X102701000Y-69551259D01*
X102701000Y-69728741D01*
X102666376Y-69902812D01*
X102598456Y-70066784D01*
X102499853Y-70214354D01*
X102374354Y-70339853D01*
X102226784Y-70438456D01*
X102062812Y-70506376D01*
X101913512Y-70536073D01*
X101888742Y-70541000D01*
X101711258Y-70541000D01*
X101686488Y-70536073D01*
X101537188Y-70506376D01*
X101373216Y-70438456D01*
X101225646Y-70339853D01*
X101100147Y-70214354D01*
X101001544Y-70066784D01*
X100933624Y-69902812D01*
X100899000Y-69728741D01*
X100899000Y-69551259D01*
X100933624Y-69377188D01*
X101001544Y-69213216D01*
X101100147Y-69065646D01*
X101225646Y-68940147D01*
X101373216Y-68841544D01*
X101537188Y-68773624D01*
X101686488Y-68743927D01*
X101711258Y-68739000D01*
X101888742Y-68739000D01*
X101913512Y-68743927D01*
G37*
G36*
X114613512Y-68743927D02*
G01*
X114762812Y-68773624D01*
X114926784Y-68841544D01*
X115074354Y-68940147D01*
X115199853Y-69065646D01*
X115298456Y-69213216D01*
X115366376Y-69377188D01*
X115401000Y-69551259D01*
X115401000Y-69728741D01*
X115366376Y-69902812D01*
X115298456Y-70066784D01*
X115199853Y-70214354D01*
X115074354Y-70339853D01*
X114926784Y-70438456D01*
X114762812Y-70506376D01*
X114613512Y-70536073D01*
X114588742Y-70541000D01*
X114411258Y-70541000D01*
X114386488Y-70536073D01*
X114237188Y-70506376D01*
X114073216Y-70438456D01*
X113925646Y-70339853D01*
X113800147Y-70214354D01*
X113701544Y-70066784D01*
X113633624Y-69902812D01*
X113599000Y-69728741D01*
X113599000Y-69551259D01*
X113633624Y-69377188D01*
X113701544Y-69213216D01*
X113800147Y-69065646D01*
X113925646Y-68940147D01*
X114073216Y-68841544D01*
X114237188Y-68773624D01*
X114386488Y-68743927D01*
X114411258Y-68739000D01*
X114588742Y-68739000D01*
X114613512Y-68743927D01*
G37*
G36*
X91753512Y-68743927D02*
G01*
X91902812Y-68773624D01*
X92066784Y-68841544D01*
X92214354Y-68940147D01*
X92339853Y-69065646D01*
X92438456Y-69213216D01*
X92506376Y-69377188D01*
X92541000Y-69551259D01*
X92541000Y-69728741D01*
X92506376Y-69902812D01*
X92438456Y-70066784D01*
X92339853Y-70214354D01*
X92214354Y-70339853D01*
X92066784Y-70438456D01*
X91902812Y-70506376D01*
X91753512Y-70536073D01*
X91728742Y-70541000D01*
X91551258Y-70541000D01*
X91526488Y-70536073D01*
X91377188Y-70506376D01*
X91213216Y-70438456D01*
X91065646Y-70339853D01*
X90940147Y-70214354D01*
X90841544Y-70066784D01*
X90773624Y-69902812D01*
X90739000Y-69728741D01*
X90739000Y-69551259D01*
X90773624Y-69377188D01*
X90841544Y-69213216D01*
X90940147Y-69065646D01*
X91065646Y-68940147D01*
X91213216Y-68841544D01*
X91377188Y-68773624D01*
X91526488Y-68743927D01*
X91551258Y-68739000D01*
X91728742Y-68739000D01*
X91753512Y-68743927D01*
G37*
G36*
X94293512Y-68743927D02*
G01*
X94442812Y-68773624D01*
X94606784Y-68841544D01*
X94754354Y-68940147D01*
X94879853Y-69065646D01*
X94978456Y-69213216D01*
X95046376Y-69377188D01*
X95081000Y-69551259D01*
X95081000Y-69728741D01*
X95046376Y-69902812D01*
X94978456Y-70066784D01*
X94879853Y-70214354D01*
X94754354Y-70339853D01*
X94606784Y-70438456D01*
X94442812Y-70506376D01*
X94293512Y-70536073D01*
X94268742Y-70541000D01*
X94091258Y-70541000D01*
X94066488Y-70536073D01*
X93917188Y-70506376D01*
X93753216Y-70438456D01*
X93605646Y-70339853D01*
X93480147Y-70214354D01*
X93381544Y-70066784D01*
X93313624Y-69902812D01*
X93279000Y-69728741D01*
X93279000Y-69551259D01*
X93313624Y-69377188D01*
X93381544Y-69213216D01*
X93480147Y-69065646D01*
X93605646Y-68940147D01*
X93753216Y-68841544D01*
X93917188Y-68773624D01*
X94066488Y-68743927D01*
X94091258Y-68739000D01*
X94268742Y-68739000D01*
X94293512Y-68743927D01*
G37*
G36*
X96833512Y-68743927D02*
G01*
X96982812Y-68773624D01*
X97146784Y-68841544D01*
X97294354Y-68940147D01*
X97419853Y-69065646D01*
X97518456Y-69213216D01*
X97586376Y-69377188D01*
X97621000Y-69551259D01*
X97621000Y-69728741D01*
X97586376Y-69902812D01*
X97518456Y-70066784D01*
X97419853Y-70214354D01*
X97294354Y-70339853D01*
X97146784Y-70438456D01*
X96982812Y-70506376D01*
X96833512Y-70536073D01*
X96808742Y-70541000D01*
X96631258Y-70541000D01*
X96606488Y-70536073D01*
X96457188Y-70506376D01*
X96293216Y-70438456D01*
X96145646Y-70339853D01*
X96020147Y-70214354D01*
X95921544Y-70066784D01*
X95853624Y-69902812D01*
X95819000Y-69728741D01*
X95819000Y-69551259D01*
X95853624Y-69377188D01*
X95921544Y-69213216D01*
X96020147Y-69065646D01*
X96145646Y-68940147D01*
X96293216Y-68841544D01*
X96457188Y-68773624D01*
X96606488Y-68743927D01*
X96631258Y-68739000D01*
X96808742Y-68739000D01*
X96833512Y-68743927D01*
G37*
G36*
X99373512Y-68743927D02*
G01*
X99522812Y-68773624D01*
X99686784Y-68841544D01*
X99834354Y-68940147D01*
X99959853Y-69065646D01*
X100058456Y-69213216D01*
X100126376Y-69377188D01*
X100161000Y-69551259D01*
X100161000Y-69728741D01*
X100126376Y-69902812D01*
X100058456Y-70066784D01*
X99959853Y-70214354D01*
X99834354Y-70339853D01*
X99686784Y-70438456D01*
X99522812Y-70506376D01*
X99373512Y-70536073D01*
X99348742Y-70541000D01*
X99171258Y-70541000D01*
X99146488Y-70536073D01*
X98997188Y-70506376D01*
X98833216Y-70438456D01*
X98685646Y-70339853D01*
X98560147Y-70214354D01*
X98461544Y-70066784D01*
X98393624Y-69902812D01*
X98359000Y-69728741D01*
X98359000Y-69551259D01*
X98393624Y-69377188D01*
X98461544Y-69213216D01*
X98560147Y-69065646D01*
X98685646Y-68940147D01*
X98833216Y-68841544D01*
X98997188Y-68773624D01*
X99146488Y-68743927D01*
X99171258Y-68739000D01*
X99348742Y-68739000D01*
X99373512Y-68743927D01*
G37*
G36*
X127313512Y-68743927D02*
G01*
X127462812Y-68773624D01*
X127626784Y-68841544D01*
X127774354Y-68940147D01*
X127899853Y-69065646D01*
X127998456Y-69213216D01*
X128066376Y-69377188D01*
X128101000Y-69551259D01*
X128101000Y-69728741D01*
X128066376Y-69902812D01*
X127998456Y-70066784D01*
X127899853Y-70214354D01*
X127774354Y-70339853D01*
X127626784Y-70438456D01*
X127462812Y-70506376D01*
X127313512Y-70536073D01*
X127288742Y-70541000D01*
X127111258Y-70541000D01*
X127086488Y-70536073D01*
X126937188Y-70506376D01*
X126773216Y-70438456D01*
X126625646Y-70339853D01*
X126500147Y-70214354D01*
X126401544Y-70066784D01*
X126333624Y-69902812D01*
X126299000Y-69728741D01*
X126299000Y-69551259D01*
X126333624Y-69377188D01*
X126401544Y-69213216D01*
X126500147Y-69065646D01*
X126625646Y-68940147D01*
X126773216Y-68841544D01*
X126937188Y-68773624D01*
X127086488Y-68743927D01*
X127111258Y-68739000D01*
X127288742Y-68739000D01*
X127313512Y-68743927D01*
G37*
G36*
X129853512Y-68743927D02*
G01*
X130002812Y-68773624D01*
X130166784Y-68841544D01*
X130314354Y-68940147D01*
X130439853Y-69065646D01*
X130538456Y-69213216D01*
X130606376Y-69377188D01*
X130641000Y-69551259D01*
X130641000Y-69728741D01*
X130606376Y-69902812D01*
X130538456Y-70066784D01*
X130439853Y-70214354D01*
X130314354Y-70339853D01*
X130166784Y-70438456D01*
X130002812Y-70506376D01*
X129853512Y-70536073D01*
X129828742Y-70541000D01*
X129651258Y-70541000D01*
X129626488Y-70536073D01*
X129477188Y-70506376D01*
X129313216Y-70438456D01*
X129165646Y-70339853D01*
X129040147Y-70214354D01*
X128941544Y-70066784D01*
X128873624Y-69902812D01*
X128839000Y-69728741D01*
X128839000Y-69551259D01*
X128873624Y-69377188D01*
X128941544Y-69213216D01*
X129040147Y-69065646D01*
X129165646Y-68940147D01*
X129313216Y-68841544D01*
X129477188Y-68773624D01*
X129626488Y-68743927D01*
X129651258Y-68739000D01*
X129828742Y-68739000D01*
X129853512Y-68743927D01*
G37*
G36*
X104453512Y-68743927D02*
G01*
X104602812Y-68773624D01*
X104766784Y-68841544D01*
X104914354Y-68940147D01*
X105039853Y-69065646D01*
X105138456Y-69213216D01*
X105206376Y-69377188D01*
X105241000Y-69551259D01*
X105241000Y-69728741D01*
X105206376Y-69902812D01*
X105138456Y-70066784D01*
X105039853Y-70214354D01*
X104914354Y-70339853D01*
X104766784Y-70438456D01*
X104602812Y-70506376D01*
X104453512Y-70536073D01*
X104428742Y-70541000D01*
X104251258Y-70541000D01*
X104226488Y-70536073D01*
X104077188Y-70506376D01*
X103913216Y-70438456D01*
X103765646Y-70339853D01*
X103640147Y-70214354D01*
X103541544Y-70066784D01*
X103473624Y-69902812D01*
X103439000Y-69728741D01*
X103439000Y-69551259D01*
X103473624Y-69377188D01*
X103541544Y-69213216D01*
X103640147Y-69065646D01*
X103765646Y-68940147D01*
X103913216Y-68841544D01*
X104077188Y-68773624D01*
X104226488Y-68743927D01*
X104251258Y-68739000D01*
X104428742Y-68739000D01*
X104453512Y-68743927D01*
G37*
G36*
X106993512Y-68743927D02*
G01*
X107142812Y-68773624D01*
X107306784Y-68841544D01*
X107454354Y-68940147D01*
X107579853Y-69065646D01*
X107678456Y-69213216D01*
X107746376Y-69377188D01*
X107781000Y-69551259D01*
X107781000Y-69728741D01*
X107746376Y-69902812D01*
X107678456Y-70066784D01*
X107579853Y-70214354D01*
X107454354Y-70339853D01*
X107306784Y-70438456D01*
X107142812Y-70506376D01*
X106993512Y-70536073D01*
X106968742Y-70541000D01*
X106791258Y-70541000D01*
X106766488Y-70536073D01*
X106617188Y-70506376D01*
X106453216Y-70438456D01*
X106305646Y-70339853D01*
X106180147Y-70214354D01*
X106081544Y-70066784D01*
X106013624Y-69902812D01*
X105979000Y-69728741D01*
X105979000Y-69551259D01*
X106013624Y-69377188D01*
X106081544Y-69213216D01*
X106180147Y-69065646D01*
X106305646Y-68940147D01*
X106453216Y-68841544D01*
X106617188Y-68773624D01*
X106766488Y-68743927D01*
X106791258Y-68739000D01*
X106968742Y-68739000D01*
X106993512Y-68743927D01*
G37*
G36*
X109533512Y-68743927D02*
G01*
X109682812Y-68773624D01*
X109846784Y-68841544D01*
X109994354Y-68940147D01*
X110119853Y-69065646D01*
X110218456Y-69213216D01*
X110286376Y-69377188D01*
X110321000Y-69551259D01*
X110321000Y-69728741D01*
X110286376Y-69902812D01*
X110218456Y-70066784D01*
X110119853Y-70214354D01*
X109994354Y-70339853D01*
X109846784Y-70438456D01*
X109682812Y-70506376D01*
X109533512Y-70536073D01*
X109508742Y-70541000D01*
X109331258Y-70541000D01*
X109306488Y-70536073D01*
X109157188Y-70506376D01*
X108993216Y-70438456D01*
X108845646Y-70339853D01*
X108720147Y-70214354D01*
X108621544Y-70066784D01*
X108553624Y-69902812D01*
X108519000Y-69728741D01*
X108519000Y-69551259D01*
X108553624Y-69377188D01*
X108621544Y-69213216D01*
X108720147Y-69065646D01*
X108845646Y-68940147D01*
X108993216Y-68841544D01*
X109157188Y-68773624D01*
X109306488Y-68743927D01*
X109331258Y-68739000D01*
X109508742Y-68739000D01*
X109533512Y-68743927D01*
G37*
G36*
X137473512Y-68743927D02*
G01*
X137622812Y-68773624D01*
X137786784Y-68841544D01*
X137934354Y-68940147D01*
X138059853Y-69065646D01*
X138158456Y-69213216D01*
X138226376Y-69377188D01*
X138261000Y-69551259D01*
X138261000Y-69728741D01*
X138226376Y-69902812D01*
X138158456Y-70066784D01*
X138059853Y-70214354D01*
X137934354Y-70339853D01*
X137786784Y-70438456D01*
X137622812Y-70506376D01*
X137473512Y-70536073D01*
X137448742Y-70541000D01*
X137271258Y-70541000D01*
X137246488Y-70536073D01*
X137097188Y-70506376D01*
X136933216Y-70438456D01*
X136785646Y-70339853D01*
X136660147Y-70214354D01*
X136561544Y-70066784D01*
X136493624Y-69902812D01*
X136459000Y-69728741D01*
X136459000Y-69551259D01*
X136493624Y-69377188D01*
X136561544Y-69213216D01*
X136660147Y-69065646D01*
X136785646Y-68940147D01*
X136933216Y-68841544D01*
X137097188Y-68773624D01*
X137246488Y-68743927D01*
X137271258Y-68739000D01*
X137448742Y-68739000D01*
X137473512Y-68743927D01*
G37*
G36*
X117153512Y-68743927D02*
G01*
X117302812Y-68773624D01*
X117466784Y-68841544D01*
X117614354Y-68940147D01*
X117739853Y-69065646D01*
X117838456Y-69213216D01*
X117906376Y-69377188D01*
X117941000Y-69551259D01*
X117941000Y-69728741D01*
X117906376Y-69902812D01*
X117838456Y-70066784D01*
X117739853Y-70214354D01*
X117614354Y-70339853D01*
X117466784Y-70438456D01*
X117302812Y-70506376D01*
X117153512Y-70536073D01*
X117128742Y-70541000D01*
X116951258Y-70541000D01*
X116926488Y-70536073D01*
X116777188Y-70506376D01*
X116613216Y-70438456D01*
X116465646Y-70339853D01*
X116340147Y-70214354D01*
X116241544Y-70066784D01*
X116173624Y-69902812D01*
X116139000Y-69728741D01*
X116139000Y-69551259D01*
X116173624Y-69377188D01*
X116241544Y-69213216D01*
X116340147Y-69065646D01*
X116465646Y-68940147D01*
X116613216Y-68841544D01*
X116777188Y-68773624D01*
X116926488Y-68743927D01*
X116951258Y-68739000D01*
X117128742Y-68739000D01*
X117153512Y-68743927D01*
G37*
G36*
X119693512Y-68743927D02*
G01*
X119842812Y-68773624D01*
X120006784Y-68841544D01*
X120154354Y-68940147D01*
X120279853Y-69065646D01*
X120378456Y-69213216D01*
X120446376Y-69377188D01*
X120481000Y-69551259D01*
X120481000Y-69728741D01*
X120446376Y-69902812D01*
X120378456Y-70066784D01*
X120279853Y-70214354D01*
X120154354Y-70339853D01*
X120006784Y-70438456D01*
X119842812Y-70506376D01*
X119693512Y-70536073D01*
X119668742Y-70541000D01*
X119491258Y-70541000D01*
X119466488Y-70536073D01*
X119317188Y-70506376D01*
X119153216Y-70438456D01*
X119005646Y-70339853D01*
X118880147Y-70214354D01*
X118781544Y-70066784D01*
X118713624Y-69902812D01*
X118679000Y-69728741D01*
X118679000Y-69551259D01*
X118713624Y-69377188D01*
X118781544Y-69213216D01*
X118880147Y-69065646D01*
X119005646Y-68940147D01*
X119153216Y-68841544D01*
X119317188Y-68773624D01*
X119466488Y-68743927D01*
X119491258Y-68739000D01*
X119668742Y-68739000D01*
X119693512Y-68743927D01*
G37*
G36*
X122233512Y-68743927D02*
G01*
X122382812Y-68773624D01*
X122546784Y-68841544D01*
X122694354Y-68940147D01*
X122819853Y-69065646D01*
X122918456Y-69213216D01*
X122986376Y-69377188D01*
X123021000Y-69551259D01*
X123021000Y-69728741D01*
X122986376Y-69902812D01*
X122918456Y-70066784D01*
X122819853Y-70214354D01*
X122694354Y-70339853D01*
X122546784Y-70438456D01*
X122382812Y-70506376D01*
X122233512Y-70536073D01*
X122208742Y-70541000D01*
X122031258Y-70541000D01*
X122006488Y-70536073D01*
X121857188Y-70506376D01*
X121693216Y-70438456D01*
X121545646Y-70339853D01*
X121420147Y-70214354D01*
X121321544Y-70066784D01*
X121253624Y-69902812D01*
X121219000Y-69728741D01*
X121219000Y-69551259D01*
X121253624Y-69377188D01*
X121321544Y-69213216D01*
X121420147Y-69065646D01*
X121545646Y-68940147D01*
X121693216Y-68841544D01*
X121857188Y-68773624D01*
X122006488Y-68743927D01*
X122031258Y-68739000D01*
X122208742Y-68739000D01*
X122233512Y-68743927D01*
G37*
G36*
X124773512Y-68743927D02*
G01*
X124922812Y-68773624D01*
X125086784Y-68841544D01*
X125234354Y-68940147D01*
X125359853Y-69065646D01*
X125458456Y-69213216D01*
X125526376Y-69377188D01*
X125561000Y-69551259D01*
X125561000Y-69728741D01*
X125526376Y-69902812D01*
X125458456Y-70066784D01*
X125359853Y-70214354D01*
X125234354Y-70339853D01*
X125086784Y-70438456D01*
X124922812Y-70506376D01*
X124773512Y-70536073D01*
X124748742Y-70541000D01*
X124571258Y-70541000D01*
X124546488Y-70536073D01*
X124397188Y-70506376D01*
X124233216Y-70438456D01*
X124085646Y-70339853D01*
X123960147Y-70214354D01*
X123861544Y-70066784D01*
X123793624Y-69902812D01*
X123759000Y-69728741D01*
X123759000Y-69551259D01*
X123793624Y-69377188D01*
X123861544Y-69213216D01*
X123960147Y-69065646D01*
X124085646Y-68940147D01*
X124233216Y-68841544D01*
X124397188Y-68773624D01*
X124546488Y-68743927D01*
X124571258Y-68739000D01*
X124748742Y-68739000D01*
X124773512Y-68743927D01*
G37*
G36*
X91753512Y-66203927D02*
G01*
X91902812Y-66233624D01*
X92066784Y-66301544D01*
X92214354Y-66400147D01*
X92339853Y-66525646D01*
X92438456Y-66673216D01*
X92506376Y-66837188D01*
X92541000Y-67011259D01*
X92541000Y-67188741D01*
X92506376Y-67362812D01*
X92438456Y-67526784D01*
X92339853Y-67674354D01*
X92214354Y-67799853D01*
X92066784Y-67898456D01*
X91902812Y-67966376D01*
X91753512Y-67996073D01*
X91728742Y-68001000D01*
X91551258Y-68001000D01*
X91526488Y-67996073D01*
X91377188Y-67966376D01*
X91213216Y-67898456D01*
X91065646Y-67799853D01*
X90940147Y-67674354D01*
X90841544Y-67526784D01*
X90773624Y-67362812D01*
X90739000Y-67188741D01*
X90739000Y-67011259D01*
X90773624Y-66837188D01*
X90841544Y-66673216D01*
X90940147Y-66525646D01*
X91065646Y-66400147D01*
X91213216Y-66301544D01*
X91377188Y-66233624D01*
X91526488Y-66203927D01*
X91551258Y-66199000D01*
X91728742Y-66199000D01*
X91753512Y-66203927D01*
G37*
G36*
X114613512Y-66203927D02*
G01*
X114762812Y-66233624D01*
X114926784Y-66301544D01*
X115074354Y-66400147D01*
X115199853Y-66525646D01*
X115298456Y-66673216D01*
X115366376Y-66837188D01*
X115401000Y-67011259D01*
X115401000Y-67188741D01*
X115366376Y-67362812D01*
X115298456Y-67526784D01*
X115199853Y-67674354D01*
X115074354Y-67799853D01*
X114926784Y-67898456D01*
X114762812Y-67966376D01*
X114613512Y-67996073D01*
X114588742Y-68001000D01*
X114411258Y-68001000D01*
X114386488Y-67996073D01*
X114237188Y-67966376D01*
X114073216Y-67898456D01*
X113925646Y-67799853D01*
X113800147Y-67674354D01*
X113701544Y-67526784D01*
X113633624Y-67362812D01*
X113599000Y-67188741D01*
X113599000Y-67011259D01*
X113633624Y-66837188D01*
X113701544Y-66673216D01*
X113800147Y-66525646D01*
X113925646Y-66400147D01*
X114073216Y-66301544D01*
X114237188Y-66233624D01*
X114386488Y-66203927D01*
X114411258Y-66199000D01*
X114588742Y-66199000D01*
X114613512Y-66203927D01*
G37*
G36*
X94293512Y-66203927D02*
G01*
X94442812Y-66233624D01*
X94606784Y-66301544D01*
X94754354Y-66400147D01*
X94879853Y-66525646D01*
X94978456Y-66673216D01*
X95046376Y-66837188D01*
X95081000Y-67011259D01*
X95081000Y-67188741D01*
X95046376Y-67362812D01*
X94978456Y-67526784D01*
X94879853Y-67674354D01*
X94754354Y-67799853D01*
X94606784Y-67898456D01*
X94442812Y-67966376D01*
X94293512Y-67996073D01*
X94268742Y-68001000D01*
X94091258Y-68001000D01*
X94066488Y-67996073D01*
X93917188Y-67966376D01*
X93753216Y-67898456D01*
X93605646Y-67799853D01*
X93480147Y-67674354D01*
X93381544Y-67526784D01*
X93313624Y-67362812D01*
X93279000Y-67188741D01*
X93279000Y-67011259D01*
X93313624Y-66837188D01*
X93381544Y-66673216D01*
X93480147Y-66525646D01*
X93605646Y-66400147D01*
X93753216Y-66301544D01*
X93917188Y-66233624D01*
X94066488Y-66203927D01*
X94091258Y-66199000D01*
X94268742Y-66199000D01*
X94293512Y-66203927D01*
G37*
G36*
X112073512Y-66203927D02*
G01*
X112222812Y-66233624D01*
X112386784Y-66301544D01*
X112534354Y-66400147D01*
X112659853Y-66525646D01*
X112758456Y-66673216D01*
X112826376Y-66837188D01*
X112861000Y-67011259D01*
X112861000Y-67188741D01*
X112826376Y-67362812D01*
X112758456Y-67526784D01*
X112659853Y-67674354D01*
X112534354Y-67799853D01*
X112386784Y-67898456D01*
X112222812Y-67966376D01*
X112073512Y-67996073D01*
X112048742Y-68001000D01*
X111871258Y-68001000D01*
X111846488Y-67996073D01*
X111697188Y-67966376D01*
X111533216Y-67898456D01*
X111385646Y-67799853D01*
X111260147Y-67674354D01*
X111161544Y-67526784D01*
X111093624Y-67362812D01*
X111059000Y-67188741D01*
X111059000Y-67011259D01*
X111093624Y-66837188D01*
X111161544Y-66673216D01*
X111260147Y-66525646D01*
X111385646Y-66400147D01*
X111533216Y-66301544D01*
X111697188Y-66233624D01*
X111846488Y-66203927D01*
X111871258Y-66199000D01*
X112048742Y-66199000D01*
X112073512Y-66203927D01*
G37*
G36*
X109533512Y-66203927D02*
G01*
X109682812Y-66233624D01*
X109846784Y-66301544D01*
X109994354Y-66400147D01*
X110119853Y-66525646D01*
X110218456Y-66673216D01*
X110286376Y-66837188D01*
X110321000Y-67011259D01*
X110321000Y-67188741D01*
X110286376Y-67362812D01*
X110218456Y-67526784D01*
X110119853Y-67674354D01*
X109994354Y-67799853D01*
X109846784Y-67898456D01*
X109682812Y-67966376D01*
X109533512Y-67996073D01*
X109508742Y-68001000D01*
X109331258Y-68001000D01*
X109306488Y-67996073D01*
X109157188Y-67966376D01*
X108993216Y-67898456D01*
X108845646Y-67799853D01*
X108720147Y-67674354D01*
X108621544Y-67526784D01*
X108553624Y-67362812D01*
X108519000Y-67188741D01*
X108519000Y-67011259D01*
X108553624Y-66837188D01*
X108621544Y-66673216D01*
X108720147Y-66525646D01*
X108845646Y-66400147D01*
X108993216Y-66301544D01*
X109157188Y-66233624D01*
X109306488Y-66203927D01*
X109331258Y-66199000D01*
X109508742Y-66199000D01*
X109533512Y-66203927D01*
G37*
G36*
X96833512Y-66203927D02*
G01*
X96982812Y-66233624D01*
X97146784Y-66301544D01*
X97294354Y-66400147D01*
X97419853Y-66525646D01*
X97518456Y-66673216D01*
X97586376Y-66837188D01*
X97621000Y-67011259D01*
X97621000Y-67188741D01*
X97586376Y-67362812D01*
X97518456Y-67526784D01*
X97419853Y-67674354D01*
X97294354Y-67799853D01*
X97146784Y-67898456D01*
X96982812Y-67966376D01*
X96833512Y-67996073D01*
X96808742Y-68001000D01*
X96631258Y-68001000D01*
X96606488Y-67996073D01*
X96457188Y-67966376D01*
X96293216Y-67898456D01*
X96145646Y-67799853D01*
X96020147Y-67674354D01*
X95921544Y-67526784D01*
X95853624Y-67362812D01*
X95819000Y-67188741D01*
X95819000Y-67011259D01*
X95853624Y-66837188D01*
X95921544Y-66673216D01*
X96020147Y-66525646D01*
X96145646Y-66400147D01*
X96293216Y-66301544D01*
X96457188Y-66233624D01*
X96606488Y-66203927D01*
X96631258Y-66199000D01*
X96808742Y-66199000D01*
X96833512Y-66203927D01*
G37*
G36*
X106993512Y-66203927D02*
G01*
X107142812Y-66233624D01*
X107306784Y-66301544D01*
X107454354Y-66400147D01*
X107579853Y-66525646D01*
X107678456Y-66673216D01*
X107746376Y-66837188D01*
X107781000Y-67011259D01*
X107781000Y-67188741D01*
X107746376Y-67362812D01*
X107678456Y-67526784D01*
X107579853Y-67674354D01*
X107454354Y-67799853D01*
X107306784Y-67898456D01*
X107142812Y-67966376D01*
X106993512Y-67996073D01*
X106968742Y-68001000D01*
X106791258Y-68001000D01*
X106766488Y-67996073D01*
X106617188Y-67966376D01*
X106453216Y-67898456D01*
X106305646Y-67799853D01*
X106180147Y-67674354D01*
X106081544Y-67526784D01*
X106013624Y-67362812D01*
X105979000Y-67188741D01*
X105979000Y-67011259D01*
X106013624Y-66837188D01*
X106081544Y-66673216D01*
X106180147Y-66525646D01*
X106305646Y-66400147D01*
X106453216Y-66301544D01*
X106617188Y-66233624D01*
X106766488Y-66203927D01*
X106791258Y-66199000D01*
X106968742Y-66199000D01*
X106993512Y-66203927D01*
G37*
G36*
X104453512Y-66203927D02*
G01*
X104602812Y-66233624D01*
X104766784Y-66301544D01*
X104914354Y-66400147D01*
X105039853Y-66525646D01*
X105138456Y-66673216D01*
X105206376Y-66837188D01*
X105241000Y-67011259D01*
X105241000Y-67188741D01*
X105206376Y-67362812D01*
X105138456Y-67526784D01*
X105039853Y-67674354D01*
X104914354Y-67799853D01*
X104766784Y-67898456D01*
X104602812Y-67966376D01*
X104453512Y-67996073D01*
X104428742Y-68001000D01*
X104251258Y-68001000D01*
X104226488Y-67996073D01*
X104077188Y-67966376D01*
X103913216Y-67898456D01*
X103765646Y-67799853D01*
X103640147Y-67674354D01*
X103541544Y-67526784D01*
X103473624Y-67362812D01*
X103439000Y-67188741D01*
X103439000Y-67011259D01*
X103473624Y-66837188D01*
X103541544Y-66673216D01*
X103640147Y-66525646D01*
X103765646Y-66400147D01*
X103913216Y-66301544D01*
X104077188Y-66233624D01*
X104226488Y-66203927D01*
X104251258Y-66199000D01*
X104428742Y-66199000D01*
X104453512Y-66203927D01*
G37*
G36*
X99373512Y-66203927D02*
G01*
X99522812Y-66233624D01*
X99686784Y-66301544D01*
X99834354Y-66400147D01*
X99959853Y-66525646D01*
X100058456Y-66673216D01*
X100126376Y-66837188D01*
X100161000Y-67011259D01*
X100161000Y-67188741D01*
X100126376Y-67362812D01*
X100058456Y-67526784D01*
X99959853Y-67674354D01*
X99834354Y-67799853D01*
X99686784Y-67898456D01*
X99522812Y-67966376D01*
X99373512Y-67996073D01*
X99348742Y-68001000D01*
X99171258Y-68001000D01*
X99146488Y-67996073D01*
X98997188Y-67966376D01*
X98833216Y-67898456D01*
X98685646Y-67799853D01*
X98560147Y-67674354D01*
X98461544Y-67526784D01*
X98393624Y-67362812D01*
X98359000Y-67188741D01*
X98359000Y-67011259D01*
X98393624Y-66837188D01*
X98461544Y-66673216D01*
X98560147Y-66525646D01*
X98685646Y-66400147D01*
X98833216Y-66301544D01*
X98997188Y-66233624D01*
X99146488Y-66203927D01*
X99171258Y-66199000D01*
X99348742Y-66199000D01*
X99373512Y-66203927D01*
G37*
G36*
X101913512Y-66203927D02*
G01*
X102062812Y-66233624D01*
X102226784Y-66301544D01*
X102374354Y-66400147D01*
X102499853Y-66525646D01*
X102598456Y-66673216D01*
X102666376Y-66837188D01*
X102701000Y-67011259D01*
X102701000Y-67188741D01*
X102666376Y-67362812D01*
X102598456Y-67526784D01*
X102499853Y-67674354D01*
X102374354Y-67799853D01*
X102226784Y-67898456D01*
X102062812Y-67966376D01*
X101913512Y-67996073D01*
X101888742Y-68001000D01*
X101711258Y-68001000D01*
X101686488Y-67996073D01*
X101537188Y-67966376D01*
X101373216Y-67898456D01*
X101225646Y-67799853D01*
X101100147Y-67674354D01*
X101001544Y-67526784D01*
X100933624Y-67362812D01*
X100899000Y-67188741D01*
X100899000Y-67011259D01*
X100933624Y-66837188D01*
X101001544Y-66673216D01*
X101100147Y-66525646D01*
X101225646Y-66400147D01*
X101373216Y-66301544D01*
X101537188Y-66233624D01*
X101686488Y-66203927D01*
X101711258Y-66199000D01*
X101888742Y-66199000D01*
X101913512Y-66203927D01*
G37*
G36*
X137473512Y-66203927D02*
G01*
X137622812Y-66233624D01*
X137786784Y-66301544D01*
X137934354Y-66400147D01*
X138059853Y-66525646D01*
X138158456Y-66673216D01*
X138226376Y-66837188D01*
X138261000Y-67011259D01*
X138261000Y-67188741D01*
X138226376Y-67362812D01*
X138158456Y-67526784D01*
X138059853Y-67674354D01*
X137934354Y-67799853D01*
X137786784Y-67898456D01*
X137622812Y-67966376D01*
X137473512Y-67996073D01*
X137448742Y-68001000D01*
X137271258Y-68001000D01*
X137246488Y-67996073D01*
X137097188Y-67966376D01*
X136933216Y-67898456D01*
X136785646Y-67799853D01*
X136660147Y-67674354D01*
X136561544Y-67526784D01*
X136493624Y-67362812D01*
X136459000Y-67188741D01*
X136459000Y-67011259D01*
X136493624Y-66837188D01*
X136561544Y-66673216D01*
X136660147Y-66525646D01*
X136785646Y-66400147D01*
X136933216Y-66301544D01*
X137097188Y-66233624D01*
X137246488Y-66203927D01*
X137271258Y-66199000D01*
X137448742Y-66199000D01*
X137473512Y-66203927D01*
G37*
G36*
X134933512Y-66203927D02*
G01*
X135082812Y-66233624D01*
X135246784Y-66301544D01*
X135394354Y-66400147D01*
X135519853Y-66525646D01*
X135618456Y-66673216D01*
X135686376Y-66837188D01*
X135721000Y-67011259D01*
X135721000Y-67188741D01*
X135686376Y-67362812D01*
X135618456Y-67526784D01*
X135519853Y-67674354D01*
X135394354Y-67799853D01*
X135246784Y-67898456D01*
X135082812Y-67966376D01*
X134933512Y-67996073D01*
X134908742Y-68001000D01*
X134731258Y-68001000D01*
X134706488Y-67996073D01*
X134557188Y-67966376D01*
X134393216Y-67898456D01*
X134245646Y-67799853D01*
X134120147Y-67674354D01*
X134021544Y-67526784D01*
X133953624Y-67362812D01*
X133919000Y-67188741D01*
X133919000Y-67011259D01*
X133953624Y-66837188D01*
X134021544Y-66673216D01*
X134120147Y-66525646D01*
X134245646Y-66400147D01*
X134393216Y-66301544D01*
X134557188Y-66233624D01*
X134706488Y-66203927D01*
X134731258Y-66199000D01*
X134908742Y-66199000D01*
X134933512Y-66203927D01*
G37*
G36*
X132393512Y-66203927D02*
G01*
X132542812Y-66233624D01*
X132706784Y-66301544D01*
X132854354Y-66400147D01*
X132979853Y-66525646D01*
X133078456Y-66673216D01*
X133146376Y-66837188D01*
X133181000Y-67011259D01*
X133181000Y-67188741D01*
X133146376Y-67362812D01*
X133078456Y-67526784D01*
X132979853Y-67674354D01*
X132854354Y-67799853D01*
X132706784Y-67898456D01*
X132542812Y-67966376D01*
X132393512Y-67996073D01*
X132368742Y-68001000D01*
X132191258Y-68001000D01*
X132166488Y-67996073D01*
X132017188Y-67966376D01*
X131853216Y-67898456D01*
X131705646Y-67799853D01*
X131580147Y-67674354D01*
X131481544Y-67526784D01*
X131413624Y-67362812D01*
X131379000Y-67188741D01*
X131379000Y-67011259D01*
X131413624Y-66837188D01*
X131481544Y-66673216D01*
X131580147Y-66525646D01*
X131705646Y-66400147D01*
X131853216Y-66301544D01*
X132017188Y-66233624D01*
X132166488Y-66203927D01*
X132191258Y-66199000D01*
X132368742Y-66199000D01*
X132393512Y-66203927D01*
G37*
G36*
X129853512Y-66203927D02*
G01*
X130002812Y-66233624D01*
X130166784Y-66301544D01*
X130314354Y-66400147D01*
X130439853Y-66525646D01*
X130538456Y-66673216D01*
X130606376Y-66837188D01*
X130641000Y-67011259D01*
X130641000Y-67188741D01*
X130606376Y-67362812D01*
X130538456Y-67526784D01*
X130439853Y-67674354D01*
X130314354Y-67799853D01*
X130166784Y-67898456D01*
X130002812Y-67966376D01*
X129853512Y-67996073D01*
X129828742Y-68001000D01*
X129651258Y-68001000D01*
X129626488Y-67996073D01*
X129477188Y-67966376D01*
X129313216Y-67898456D01*
X129165646Y-67799853D01*
X129040147Y-67674354D01*
X128941544Y-67526784D01*
X128873624Y-67362812D01*
X128839000Y-67188741D01*
X128839000Y-67011259D01*
X128873624Y-66837188D01*
X128941544Y-66673216D01*
X129040147Y-66525646D01*
X129165646Y-66400147D01*
X129313216Y-66301544D01*
X129477188Y-66233624D01*
X129626488Y-66203927D01*
X129651258Y-66199000D01*
X129828742Y-66199000D01*
X129853512Y-66203927D01*
G37*
G36*
X127313512Y-66203927D02*
G01*
X127462812Y-66233624D01*
X127626784Y-66301544D01*
X127774354Y-66400147D01*
X127899853Y-66525646D01*
X127998456Y-66673216D01*
X128066376Y-66837188D01*
X128101000Y-67011259D01*
X128101000Y-67188741D01*
X128066376Y-67362812D01*
X127998456Y-67526784D01*
X127899853Y-67674354D01*
X127774354Y-67799853D01*
X127626784Y-67898456D01*
X127462812Y-67966376D01*
X127313512Y-67996073D01*
X127288742Y-68001000D01*
X127111258Y-68001000D01*
X127086488Y-67996073D01*
X126937188Y-67966376D01*
X126773216Y-67898456D01*
X126625646Y-67799853D01*
X126500147Y-67674354D01*
X126401544Y-67526784D01*
X126333624Y-67362812D01*
X126299000Y-67188741D01*
X126299000Y-67011259D01*
X126333624Y-66837188D01*
X126401544Y-66673216D01*
X126500147Y-66525646D01*
X126625646Y-66400147D01*
X126773216Y-66301544D01*
X126937188Y-66233624D01*
X127086488Y-66203927D01*
X127111258Y-66199000D01*
X127288742Y-66199000D01*
X127313512Y-66203927D01*
G37*
G36*
X124773512Y-66203927D02*
G01*
X124922812Y-66233624D01*
X125086784Y-66301544D01*
X125234354Y-66400147D01*
X125359853Y-66525646D01*
X125458456Y-66673216D01*
X125526376Y-66837188D01*
X125561000Y-67011259D01*
X125561000Y-67188741D01*
X125526376Y-67362812D01*
X125458456Y-67526784D01*
X125359853Y-67674354D01*
X125234354Y-67799853D01*
X125086784Y-67898456D01*
X124922812Y-67966376D01*
X124773512Y-67996073D01*
X124748742Y-68001000D01*
X124571258Y-68001000D01*
X124546488Y-67996073D01*
X124397188Y-67966376D01*
X124233216Y-67898456D01*
X124085646Y-67799853D01*
X123960147Y-67674354D01*
X123861544Y-67526784D01*
X123793624Y-67362812D01*
X123759000Y-67188741D01*
X123759000Y-67011259D01*
X123793624Y-66837188D01*
X123861544Y-66673216D01*
X123960147Y-66525646D01*
X124085646Y-66400147D01*
X124233216Y-66301544D01*
X124397188Y-66233624D01*
X124546488Y-66203927D01*
X124571258Y-66199000D01*
X124748742Y-66199000D01*
X124773512Y-66203927D01*
G37*
G36*
X122233512Y-66203927D02*
G01*
X122382812Y-66233624D01*
X122546784Y-66301544D01*
X122694354Y-66400147D01*
X122819853Y-66525646D01*
X122918456Y-66673216D01*
X122986376Y-66837188D01*
X123021000Y-67011259D01*
X123021000Y-67188741D01*
X122986376Y-67362812D01*
X122918456Y-67526784D01*
X122819853Y-67674354D01*
X122694354Y-67799853D01*
X122546784Y-67898456D01*
X122382812Y-67966376D01*
X122233512Y-67996073D01*
X122208742Y-68001000D01*
X122031258Y-68001000D01*
X122006488Y-67996073D01*
X121857188Y-67966376D01*
X121693216Y-67898456D01*
X121545646Y-67799853D01*
X121420147Y-67674354D01*
X121321544Y-67526784D01*
X121253624Y-67362812D01*
X121219000Y-67188741D01*
X121219000Y-67011259D01*
X121253624Y-66837188D01*
X121321544Y-66673216D01*
X121420147Y-66525646D01*
X121545646Y-66400147D01*
X121693216Y-66301544D01*
X121857188Y-66233624D01*
X122006488Y-66203927D01*
X122031258Y-66199000D01*
X122208742Y-66199000D01*
X122233512Y-66203927D01*
G37*
G36*
X140801000Y-68001000D02*
G01*
X138999000Y-68001000D01*
X138999000Y-66199000D01*
X140801000Y-66199000D01*
X140801000Y-68001000D01*
G37*
G36*
X119693512Y-66203927D02*
G01*
X119842812Y-66233624D01*
X120006784Y-66301544D01*
X120154354Y-66400147D01*
X120279853Y-66525646D01*
X120378456Y-66673216D01*
X120446376Y-66837188D01*
X120481000Y-67011259D01*
X120481000Y-67188741D01*
X120446376Y-67362812D01*
X120378456Y-67526784D01*
X120279853Y-67674354D01*
X120154354Y-67799853D01*
X120006784Y-67898456D01*
X119842812Y-67966376D01*
X119693512Y-67996073D01*
X119668742Y-68001000D01*
X119491258Y-68001000D01*
X119466488Y-67996073D01*
X119317188Y-67966376D01*
X119153216Y-67898456D01*
X119005646Y-67799853D01*
X118880147Y-67674354D01*
X118781544Y-67526784D01*
X118713624Y-67362812D01*
X118679000Y-67188741D01*
X118679000Y-67011259D01*
X118713624Y-66837188D01*
X118781544Y-66673216D01*
X118880147Y-66525646D01*
X119005646Y-66400147D01*
X119153216Y-66301544D01*
X119317188Y-66233624D01*
X119466488Y-66203927D01*
X119491258Y-66199000D01*
X119668742Y-66199000D01*
X119693512Y-66203927D01*
G37*
G36*
X117153512Y-66203927D02*
G01*
X117302812Y-66233624D01*
X117466784Y-66301544D01*
X117614354Y-66400147D01*
X117739853Y-66525646D01*
X117838456Y-66673216D01*
X117906376Y-66837188D01*
X117941000Y-67011259D01*
X117941000Y-67188741D01*
X117906376Y-67362812D01*
X117838456Y-67526784D01*
X117739853Y-67674354D01*
X117614354Y-67799853D01*
X117466784Y-67898456D01*
X117302812Y-67966376D01*
X117153512Y-67996073D01*
X117128742Y-68001000D01*
X116951258Y-68001000D01*
X116926488Y-67996073D01*
X116777188Y-67966376D01*
X116613216Y-67898456D01*
X116465646Y-67799853D01*
X116340147Y-67674354D01*
X116241544Y-67526784D01*
X116173624Y-67362812D01*
X116139000Y-67188741D01*
X116139000Y-67011259D01*
X116173624Y-66837188D01*
X116241544Y-66673216D01*
X116340147Y-66525646D01*
X116465646Y-66400147D01*
X116613216Y-66301544D01*
X116777188Y-66233624D01*
X116926488Y-66203927D01*
X116951258Y-66199000D01*
X117128742Y-66199000D01*
X117153512Y-66203927D01*
G37*
M02*
