G04 #@! TF.GenerationSoftware,KiCad,Pcbnew,(5.1.5)-3*
G04 #@! TF.CreationDate,2021-07-01T18:35:26+03:00*
G04 #@! TF.ProjectId,ISARPi,49534152-5069-42e6-9b69-6361645f7063,rev?*
G04 #@! TF.SameCoordinates,Original*
G04 #@! TF.FileFunction,Paste,Top*
G04 #@! TF.FilePolarity,Positive*
%FSLAX46Y46*%
G04 Gerber Fmt 4.6, Leading zero omitted, Abs format (unit mm)*
G04 Created by KiCad (PCBNEW (5.1.5)-3) date 2021-07-01 18:35:26*
%MOMM*%
%LPD*%
G04 APERTURE LIST*
%ADD10C,0.100000*%
G04 APERTURE END LIST*
D10*
G36*
X135377691Y-83851053D02*
G01*
X135398926Y-83854203D01*
X135419750Y-83859419D01*
X135439962Y-83866651D01*
X135459368Y-83875830D01*
X135477781Y-83886866D01*
X135495024Y-83899654D01*
X135510930Y-83914070D01*
X135525346Y-83929976D01*
X135538134Y-83947219D01*
X135549170Y-83965632D01*
X135558349Y-83985038D01*
X135565581Y-84005250D01*
X135570797Y-84026074D01*
X135573947Y-84047309D01*
X135575000Y-84068750D01*
X135575000Y-84506250D01*
X135573947Y-84527691D01*
X135570797Y-84548926D01*
X135565581Y-84569750D01*
X135558349Y-84589962D01*
X135549170Y-84609368D01*
X135538134Y-84627781D01*
X135525346Y-84645024D01*
X135510930Y-84660930D01*
X135495024Y-84675346D01*
X135477781Y-84688134D01*
X135459368Y-84699170D01*
X135439962Y-84708349D01*
X135419750Y-84715581D01*
X135398926Y-84720797D01*
X135377691Y-84723947D01*
X135356250Y-84725000D01*
X134843750Y-84725000D01*
X134822309Y-84723947D01*
X134801074Y-84720797D01*
X134780250Y-84715581D01*
X134760038Y-84708349D01*
X134740632Y-84699170D01*
X134722219Y-84688134D01*
X134704976Y-84675346D01*
X134689070Y-84660930D01*
X134674654Y-84645024D01*
X134661866Y-84627781D01*
X134650830Y-84609368D01*
X134641651Y-84589962D01*
X134634419Y-84569750D01*
X134629203Y-84548926D01*
X134626053Y-84527691D01*
X134625000Y-84506250D01*
X134625000Y-84068750D01*
X134626053Y-84047309D01*
X134629203Y-84026074D01*
X134634419Y-84005250D01*
X134641651Y-83985038D01*
X134650830Y-83965632D01*
X134661866Y-83947219D01*
X134674654Y-83929976D01*
X134689070Y-83914070D01*
X134704976Y-83899654D01*
X134722219Y-83886866D01*
X134740632Y-83875830D01*
X134760038Y-83866651D01*
X134780250Y-83859419D01*
X134801074Y-83854203D01*
X134822309Y-83851053D01*
X134843750Y-83850000D01*
X135356250Y-83850000D01*
X135377691Y-83851053D01*
G37*
G36*
X135377691Y-82276053D02*
G01*
X135398926Y-82279203D01*
X135419750Y-82284419D01*
X135439962Y-82291651D01*
X135459368Y-82300830D01*
X135477781Y-82311866D01*
X135495024Y-82324654D01*
X135510930Y-82339070D01*
X135525346Y-82354976D01*
X135538134Y-82372219D01*
X135549170Y-82390632D01*
X135558349Y-82410038D01*
X135565581Y-82430250D01*
X135570797Y-82451074D01*
X135573947Y-82472309D01*
X135575000Y-82493750D01*
X135575000Y-82931250D01*
X135573947Y-82952691D01*
X135570797Y-82973926D01*
X135565581Y-82994750D01*
X135558349Y-83014962D01*
X135549170Y-83034368D01*
X135538134Y-83052781D01*
X135525346Y-83070024D01*
X135510930Y-83085930D01*
X135495024Y-83100346D01*
X135477781Y-83113134D01*
X135459368Y-83124170D01*
X135439962Y-83133349D01*
X135419750Y-83140581D01*
X135398926Y-83145797D01*
X135377691Y-83148947D01*
X135356250Y-83150000D01*
X134843750Y-83150000D01*
X134822309Y-83148947D01*
X134801074Y-83145797D01*
X134780250Y-83140581D01*
X134760038Y-83133349D01*
X134740632Y-83124170D01*
X134722219Y-83113134D01*
X134704976Y-83100346D01*
X134689070Y-83085930D01*
X134674654Y-83070024D01*
X134661866Y-83052781D01*
X134650830Y-83034368D01*
X134641651Y-83014962D01*
X134634419Y-82994750D01*
X134629203Y-82973926D01*
X134626053Y-82952691D01*
X134625000Y-82931250D01*
X134625000Y-82493750D01*
X134626053Y-82472309D01*
X134629203Y-82451074D01*
X134634419Y-82430250D01*
X134641651Y-82410038D01*
X134650830Y-82390632D01*
X134661866Y-82372219D01*
X134674654Y-82354976D01*
X134689070Y-82339070D01*
X134704976Y-82324654D01*
X134722219Y-82311866D01*
X134740632Y-82300830D01*
X134760038Y-82291651D01*
X134780250Y-82284419D01*
X134801074Y-82279203D01*
X134822309Y-82276053D01*
X134843750Y-82275000D01*
X135356250Y-82275000D01*
X135377691Y-82276053D01*
G37*
G36*
X137877691Y-83851053D02*
G01*
X137898926Y-83854203D01*
X137919750Y-83859419D01*
X137939962Y-83866651D01*
X137959368Y-83875830D01*
X137977781Y-83886866D01*
X137995024Y-83899654D01*
X138010930Y-83914070D01*
X138025346Y-83929976D01*
X138038134Y-83947219D01*
X138049170Y-83965632D01*
X138058349Y-83985038D01*
X138065581Y-84005250D01*
X138070797Y-84026074D01*
X138073947Y-84047309D01*
X138075000Y-84068750D01*
X138075000Y-84506250D01*
X138073947Y-84527691D01*
X138070797Y-84548926D01*
X138065581Y-84569750D01*
X138058349Y-84589962D01*
X138049170Y-84609368D01*
X138038134Y-84627781D01*
X138025346Y-84645024D01*
X138010930Y-84660930D01*
X137995024Y-84675346D01*
X137977781Y-84688134D01*
X137959368Y-84699170D01*
X137939962Y-84708349D01*
X137919750Y-84715581D01*
X137898926Y-84720797D01*
X137877691Y-84723947D01*
X137856250Y-84725000D01*
X137343750Y-84725000D01*
X137322309Y-84723947D01*
X137301074Y-84720797D01*
X137280250Y-84715581D01*
X137260038Y-84708349D01*
X137240632Y-84699170D01*
X137222219Y-84688134D01*
X137204976Y-84675346D01*
X137189070Y-84660930D01*
X137174654Y-84645024D01*
X137161866Y-84627781D01*
X137150830Y-84609368D01*
X137141651Y-84589962D01*
X137134419Y-84569750D01*
X137129203Y-84548926D01*
X137126053Y-84527691D01*
X137125000Y-84506250D01*
X137125000Y-84068750D01*
X137126053Y-84047309D01*
X137129203Y-84026074D01*
X137134419Y-84005250D01*
X137141651Y-83985038D01*
X137150830Y-83965632D01*
X137161866Y-83947219D01*
X137174654Y-83929976D01*
X137189070Y-83914070D01*
X137204976Y-83899654D01*
X137222219Y-83886866D01*
X137240632Y-83875830D01*
X137260038Y-83866651D01*
X137280250Y-83859419D01*
X137301074Y-83854203D01*
X137322309Y-83851053D01*
X137343750Y-83850000D01*
X137856250Y-83850000D01*
X137877691Y-83851053D01*
G37*
G36*
X137877691Y-82276053D02*
G01*
X137898926Y-82279203D01*
X137919750Y-82284419D01*
X137939962Y-82291651D01*
X137959368Y-82300830D01*
X137977781Y-82311866D01*
X137995024Y-82324654D01*
X138010930Y-82339070D01*
X138025346Y-82354976D01*
X138038134Y-82372219D01*
X138049170Y-82390632D01*
X138058349Y-82410038D01*
X138065581Y-82430250D01*
X138070797Y-82451074D01*
X138073947Y-82472309D01*
X138075000Y-82493750D01*
X138075000Y-82931250D01*
X138073947Y-82952691D01*
X138070797Y-82973926D01*
X138065581Y-82994750D01*
X138058349Y-83014962D01*
X138049170Y-83034368D01*
X138038134Y-83052781D01*
X138025346Y-83070024D01*
X138010930Y-83085930D01*
X137995024Y-83100346D01*
X137977781Y-83113134D01*
X137959368Y-83124170D01*
X137939962Y-83133349D01*
X137919750Y-83140581D01*
X137898926Y-83145797D01*
X137877691Y-83148947D01*
X137856250Y-83150000D01*
X137343750Y-83150000D01*
X137322309Y-83148947D01*
X137301074Y-83145797D01*
X137280250Y-83140581D01*
X137260038Y-83133349D01*
X137240632Y-83124170D01*
X137222219Y-83113134D01*
X137204976Y-83100346D01*
X137189070Y-83085930D01*
X137174654Y-83070024D01*
X137161866Y-83052781D01*
X137150830Y-83034368D01*
X137141651Y-83014962D01*
X137134419Y-82994750D01*
X137129203Y-82973926D01*
X137126053Y-82952691D01*
X137125000Y-82931250D01*
X137125000Y-82493750D01*
X137126053Y-82472309D01*
X137129203Y-82451074D01*
X137134419Y-82430250D01*
X137141651Y-82410038D01*
X137150830Y-82390632D01*
X137161866Y-82372219D01*
X137174654Y-82354976D01*
X137189070Y-82339070D01*
X137204976Y-82324654D01*
X137222219Y-82311866D01*
X137240632Y-82300830D01*
X137260038Y-82291651D01*
X137280250Y-82284419D01*
X137301074Y-82279203D01*
X137322309Y-82276053D01*
X137343750Y-82275000D01*
X137856250Y-82275000D01*
X137877691Y-82276053D01*
G37*
G36*
X165877691Y-83851053D02*
G01*
X165898926Y-83854203D01*
X165919750Y-83859419D01*
X165939962Y-83866651D01*
X165959368Y-83875830D01*
X165977781Y-83886866D01*
X165995024Y-83899654D01*
X166010930Y-83914070D01*
X166025346Y-83929976D01*
X166038134Y-83947219D01*
X166049170Y-83965632D01*
X166058349Y-83985038D01*
X166065581Y-84005250D01*
X166070797Y-84026074D01*
X166073947Y-84047309D01*
X166075000Y-84068750D01*
X166075000Y-84506250D01*
X166073947Y-84527691D01*
X166070797Y-84548926D01*
X166065581Y-84569750D01*
X166058349Y-84589962D01*
X166049170Y-84609368D01*
X166038134Y-84627781D01*
X166025346Y-84645024D01*
X166010930Y-84660930D01*
X165995024Y-84675346D01*
X165977781Y-84688134D01*
X165959368Y-84699170D01*
X165939962Y-84708349D01*
X165919750Y-84715581D01*
X165898926Y-84720797D01*
X165877691Y-84723947D01*
X165856250Y-84725000D01*
X165343750Y-84725000D01*
X165322309Y-84723947D01*
X165301074Y-84720797D01*
X165280250Y-84715581D01*
X165260038Y-84708349D01*
X165240632Y-84699170D01*
X165222219Y-84688134D01*
X165204976Y-84675346D01*
X165189070Y-84660930D01*
X165174654Y-84645024D01*
X165161866Y-84627781D01*
X165150830Y-84609368D01*
X165141651Y-84589962D01*
X165134419Y-84569750D01*
X165129203Y-84548926D01*
X165126053Y-84527691D01*
X165125000Y-84506250D01*
X165125000Y-84068750D01*
X165126053Y-84047309D01*
X165129203Y-84026074D01*
X165134419Y-84005250D01*
X165141651Y-83985038D01*
X165150830Y-83965632D01*
X165161866Y-83947219D01*
X165174654Y-83929976D01*
X165189070Y-83914070D01*
X165204976Y-83899654D01*
X165222219Y-83886866D01*
X165240632Y-83875830D01*
X165260038Y-83866651D01*
X165280250Y-83859419D01*
X165301074Y-83854203D01*
X165322309Y-83851053D01*
X165343750Y-83850000D01*
X165856250Y-83850000D01*
X165877691Y-83851053D01*
G37*
G36*
X165877691Y-82276053D02*
G01*
X165898926Y-82279203D01*
X165919750Y-82284419D01*
X165939962Y-82291651D01*
X165959368Y-82300830D01*
X165977781Y-82311866D01*
X165995024Y-82324654D01*
X166010930Y-82339070D01*
X166025346Y-82354976D01*
X166038134Y-82372219D01*
X166049170Y-82390632D01*
X166058349Y-82410038D01*
X166065581Y-82430250D01*
X166070797Y-82451074D01*
X166073947Y-82472309D01*
X166075000Y-82493750D01*
X166075000Y-82931250D01*
X166073947Y-82952691D01*
X166070797Y-82973926D01*
X166065581Y-82994750D01*
X166058349Y-83014962D01*
X166049170Y-83034368D01*
X166038134Y-83052781D01*
X166025346Y-83070024D01*
X166010930Y-83085930D01*
X165995024Y-83100346D01*
X165977781Y-83113134D01*
X165959368Y-83124170D01*
X165939962Y-83133349D01*
X165919750Y-83140581D01*
X165898926Y-83145797D01*
X165877691Y-83148947D01*
X165856250Y-83150000D01*
X165343750Y-83150000D01*
X165322309Y-83148947D01*
X165301074Y-83145797D01*
X165280250Y-83140581D01*
X165260038Y-83133349D01*
X165240632Y-83124170D01*
X165222219Y-83113134D01*
X165204976Y-83100346D01*
X165189070Y-83085930D01*
X165174654Y-83070024D01*
X165161866Y-83052781D01*
X165150830Y-83034368D01*
X165141651Y-83014962D01*
X165134419Y-82994750D01*
X165129203Y-82973926D01*
X165126053Y-82952691D01*
X165125000Y-82931250D01*
X165125000Y-82493750D01*
X165126053Y-82472309D01*
X165129203Y-82451074D01*
X165134419Y-82430250D01*
X165141651Y-82410038D01*
X165150830Y-82390632D01*
X165161866Y-82372219D01*
X165174654Y-82354976D01*
X165189070Y-82339070D01*
X165204976Y-82324654D01*
X165222219Y-82311866D01*
X165240632Y-82300830D01*
X165260038Y-82291651D01*
X165280250Y-82284419D01*
X165301074Y-82279203D01*
X165322309Y-82276053D01*
X165343750Y-82275000D01*
X165856250Y-82275000D01*
X165877691Y-82276053D01*
G37*
G36*
X163277691Y-83851053D02*
G01*
X163298926Y-83854203D01*
X163319750Y-83859419D01*
X163339962Y-83866651D01*
X163359368Y-83875830D01*
X163377781Y-83886866D01*
X163395024Y-83899654D01*
X163410930Y-83914070D01*
X163425346Y-83929976D01*
X163438134Y-83947219D01*
X163449170Y-83965632D01*
X163458349Y-83985038D01*
X163465581Y-84005250D01*
X163470797Y-84026074D01*
X163473947Y-84047309D01*
X163475000Y-84068750D01*
X163475000Y-84506250D01*
X163473947Y-84527691D01*
X163470797Y-84548926D01*
X163465581Y-84569750D01*
X163458349Y-84589962D01*
X163449170Y-84609368D01*
X163438134Y-84627781D01*
X163425346Y-84645024D01*
X163410930Y-84660930D01*
X163395024Y-84675346D01*
X163377781Y-84688134D01*
X163359368Y-84699170D01*
X163339962Y-84708349D01*
X163319750Y-84715581D01*
X163298926Y-84720797D01*
X163277691Y-84723947D01*
X163256250Y-84725000D01*
X162743750Y-84725000D01*
X162722309Y-84723947D01*
X162701074Y-84720797D01*
X162680250Y-84715581D01*
X162660038Y-84708349D01*
X162640632Y-84699170D01*
X162622219Y-84688134D01*
X162604976Y-84675346D01*
X162589070Y-84660930D01*
X162574654Y-84645024D01*
X162561866Y-84627781D01*
X162550830Y-84609368D01*
X162541651Y-84589962D01*
X162534419Y-84569750D01*
X162529203Y-84548926D01*
X162526053Y-84527691D01*
X162525000Y-84506250D01*
X162525000Y-84068750D01*
X162526053Y-84047309D01*
X162529203Y-84026074D01*
X162534419Y-84005250D01*
X162541651Y-83985038D01*
X162550830Y-83965632D01*
X162561866Y-83947219D01*
X162574654Y-83929976D01*
X162589070Y-83914070D01*
X162604976Y-83899654D01*
X162622219Y-83886866D01*
X162640632Y-83875830D01*
X162660038Y-83866651D01*
X162680250Y-83859419D01*
X162701074Y-83854203D01*
X162722309Y-83851053D01*
X162743750Y-83850000D01*
X163256250Y-83850000D01*
X163277691Y-83851053D01*
G37*
G36*
X163277691Y-82276053D02*
G01*
X163298926Y-82279203D01*
X163319750Y-82284419D01*
X163339962Y-82291651D01*
X163359368Y-82300830D01*
X163377781Y-82311866D01*
X163395024Y-82324654D01*
X163410930Y-82339070D01*
X163425346Y-82354976D01*
X163438134Y-82372219D01*
X163449170Y-82390632D01*
X163458349Y-82410038D01*
X163465581Y-82430250D01*
X163470797Y-82451074D01*
X163473947Y-82472309D01*
X163475000Y-82493750D01*
X163475000Y-82931250D01*
X163473947Y-82952691D01*
X163470797Y-82973926D01*
X163465581Y-82994750D01*
X163458349Y-83014962D01*
X163449170Y-83034368D01*
X163438134Y-83052781D01*
X163425346Y-83070024D01*
X163410930Y-83085930D01*
X163395024Y-83100346D01*
X163377781Y-83113134D01*
X163359368Y-83124170D01*
X163339962Y-83133349D01*
X163319750Y-83140581D01*
X163298926Y-83145797D01*
X163277691Y-83148947D01*
X163256250Y-83150000D01*
X162743750Y-83150000D01*
X162722309Y-83148947D01*
X162701074Y-83145797D01*
X162680250Y-83140581D01*
X162660038Y-83133349D01*
X162640632Y-83124170D01*
X162622219Y-83113134D01*
X162604976Y-83100346D01*
X162589070Y-83085930D01*
X162574654Y-83070024D01*
X162561866Y-83052781D01*
X162550830Y-83034368D01*
X162541651Y-83014962D01*
X162534419Y-82994750D01*
X162529203Y-82973926D01*
X162526053Y-82952691D01*
X162525000Y-82931250D01*
X162525000Y-82493750D01*
X162526053Y-82472309D01*
X162529203Y-82451074D01*
X162534419Y-82430250D01*
X162541651Y-82410038D01*
X162550830Y-82390632D01*
X162561866Y-82372219D01*
X162574654Y-82354976D01*
X162589070Y-82339070D01*
X162604976Y-82324654D01*
X162622219Y-82311866D01*
X162640632Y-82300830D01*
X162660038Y-82291651D01*
X162680250Y-82284419D01*
X162701074Y-82279203D01*
X162722309Y-82276053D01*
X162743750Y-82275000D01*
X163256250Y-82275000D01*
X163277691Y-82276053D01*
G37*
G36*
X160777691Y-83851053D02*
G01*
X160798926Y-83854203D01*
X160819750Y-83859419D01*
X160839962Y-83866651D01*
X160859368Y-83875830D01*
X160877781Y-83886866D01*
X160895024Y-83899654D01*
X160910930Y-83914070D01*
X160925346Y-83929976D01*
X160938134Y-83947219D01*
X160949170Y-83965632D01*
X160958349Y-83985038D01*
X160965581Y-84005250D01*
X160970797Y-84026074D01*
X160973947Y-84047309D01*
X160975000Y-84068750D01*
X160975000Y-84506250D01*
X160973947Y-84527691D01*
X160970797Y-84548926D01*
X160965581Y-84569750D01*
X160958349Y-84589962D01*
X160949170Y-84609368D01*
X160938134Y-84627781D01*
X160925346Y-84645024D01*
X160910930Y-84660930D01*
X160895024Y-84675346D01*
X160877781Y-84688134D01*
X160859368Y-84699170D01*
X160839962Y-84708349D01*
X160819750Y-84715581D01*
X160798926Y-84720797D01*
X160777691Y-84723947D01*
X160756250Y-84725000D01*
X160243750Y-84725000D01*
X160222309Y-84723947D01*
X160201074Y-84720797D01*
X160180250Y-84715581D01*
X160160038Y-84708349D01*
X160140632Y-84699170D01*
X160122219Y-84688134D01*
X160104976Y-84675346D01*
X160089070Y-84660930D01*
X160074654Y-84645024D01*
X160061866Y-84627781D01*
X160050830Y-84609368D01*
X160041651Y-84589962D01*
X160034419Y-84569750D01*
X160029203Y-84548926D01*
X160026053Y-84527691D01*
X160025000Y-84506250D01*
X160025000Y-84068750D01*
X160026053Y-84047309D01*
X160029203Y-84026074D01*
X160034419Y-84005250D01*
X160041651Y-83985038D01*
X160050830Y-83965632D01*
X160061866Y-83947219D01*
X160074654Y-83929976D01*
X160089070Y-83914070D01*
X160104976Y-83899654D01*
X160122219Y-83886866D01*
X160140632Y-83875830D01*
X160160038Y-83866651D01*
X160180250Y-83859419D01*
X160201074Y-83854203D01*
X160222309Y-83851053D01*
X160243750Y-83850000D01*
X160756250Y-83850000D01*
X160777691Y-83851053D01*
G37*
G36*
X160777691Y-82276053D02*
G01*
X160798926Y-82279203D01*
X160819750Y-82284419D01*
X160839962Y-82291651D01*
X160859368Y-82300830D01*
X160877781Y-82311866D01*
X160895024Y-82324654D01*
X160910930Y-82339070D01*
X160925346Y-82354976D01*
X160938134Y-82372219D01*
X160949170Y-82390632D01*
X160958349Y-82410038D01*
X160965581Y-82430250D01*
X160970797Y-82451074D01*
X160973947Y-82472309D01*
X160975000Y-82493750D01*
X160975000Y-82931250D01*
X160973947Y-82952691D01*
X160970797Y-82973926D01*
X160965581Y-82994750D01*
X160958349Y-83014962D01*
X160949170Y-83034368D01*
X160938134Y-83052781D01*
X160925346Y-83070024D01*
X160910930Y-83085930D01*
X160895024Y-83100346D01*
X160877781Y-83113134D01*
X160859368Y-83124170D01*
X160839962Y-83133349D01*
X160819750Y-83140581D01*
X160798926Y-83145797D01*
X160777691Y-83148947D01*
X160756250Y-83150000D01*
X160243750Y-83150000D01*
X160222309Y-83148947D01*
X160201074Y-83145797D01*
X160180250Y-83140581D01*
X160160038Y-83133349D01*
X160140632Y-83124170D01*
X160122219Y-83113134D01*
X160104976Y-83100346D01*
X160089070Y-83085930D01*
X160074654Y-83070024D01*
X160061866Y-83052781D01*
X160050830Y-83034368D01*
X160041651Y-83014962D01*
X160034419Y-82994750D01*
X160029203Y-82973926D01*
X160026053Y-82952691D01*
X160025000Y-82931250D01*
X160025000Y-82493750D01*
X160026053Y-82472309D01*
X160029203Y-82451074D01*
X160034419Y-82430250D01*
X160041651Y-82410038D01*
X160050830Y-82390632D01*
X160061866Y-82372219D01*
X160074654Y-82354976D01*
X160089070Y-82339070D01*
X160104976Y-82324654D01*
X160122219Y-82311866D01*
X160140632Y-82300830D01*
X160160038Y-82291651D01*
X160180250Y-82284419D01*
X160201074Y-82279203D01*
X160222309Y-82276053D01*
X160243750Y-82275000D01*
X160756250Y-82275000D01*
X160777691Y-82276053D01*
G37*
G36*
X158177691Y-83838553D02*
G01*
X158198926Y-83841703D01*
X158219750Y-83846919D01*
X158239962Y-83854151D01*
X158259368Y-83863330D01*
X158277781Y-83874366D01*
X158295024Y-83887154D01*
X158310930Y-83901570D01*
X158325346Y-83917476D01*
X158338134Y-83934719D01*
X158349170Y-83953132D01*
X158358349Y-83972538D01*
X158365581Y-83992750D01*
X158370797Y-84013574D01*
X158373947Y-84034809D01*
X158375000Y-84056250D01*
X158375000Y-84493750D01*
X158373947Y-84515191D01*
X158370797Y-84536426D01*
X158365581Y-84557250D01*
X158358349Y-84577462D01*
X158349170Y-84596868D01*
X158338134Y-84615281D01*
X158325346Y-84632524D01*
X158310930Y-84648430D01*
X158295024Y-84662846D01*
X158277781Y-84675634D01*
X158259368Y-84686670D01*
X158239962Y-84695849D01*
X158219750Y-84703081D01*
X158198926Y-84708297D01*
X158177691Y-84711447D01*
X158156250Y-84712500D01*
X157643750Y-84712500D01*
X157622309Y-84711447D01*
X157601074Y-84708297D01*
X157580250Y-84703081D01*
X157560038Y-84695849D01*
X157540632Y-84686670D01*
X157522219Y-84675634D01*
X157504976Y-84662846D01*
X157489070Y-84648430D01*
X157474654Y-84632524D01*
X157461866Y-84615281D01*
X157450830Y-84596868D01*
X157441651Y-84577462D01*
X157434419Y-84557250D01*
X157429203Y-84536426D01*
X157426053Y-84515191D01*
X157425000Y-84493750D01*
X157425000Y-84056250D01*
X157426053Y-84034809D01*
X157429203Y-84013574D01*
X157434419Y-83992750D01*
X157441651Y-83972538D01*
X157450830Y-83953132D01*
X157461866Y-83934719D01*
X157474654Y-83917476D01*
X157489070Y-83901570D01*
X157504976Y-83887154D01*
X157522219Y-83874366D01*
X157540632Y-83863330D01*
X157560038Y-83854151D01*
X157580250Y-83846919D01*
X157601074Y-83841703D01*
X157622309Y-83838553D01*
X157643750Y-83837500D01*
X158156250Y-83837500D01*
X158177691Y-83838553D01*
G37*
G36*
X158177691Y-82263553D02*
G01*
X158198926Y-82266703D01*
X158219750Y-82271919D01*
X158239962Y-82279151D01*
X158259368Y-82288330D01*
X158277781Y-82299366D01*
X158295024Y-82312154D01*
X158310930Y-82326570D01*
X158325346Y-82342476D01*
X158338134Y-82359719D01*
X158349170Y-82378132D01*
X158358349Y-82397538D01*
X158365581Y-82417750D01*
X158370797Y-82438574D01*
X158373947Y-82459809D01*
X158375000Y-82481250D01*
X158375000Y-82918750D01*
X158373947Y-82940191D01*
X158370797Y-82961426D01*
X158365581Y-82982250D01*
X158358349Y-83002462D01*
X158349170Y-83021868D01*
X158338134Y-83040281D01*
X158325346Y-83057524D01*
X158310930Y-83073430D01*
X158295024Y-83087846D01*
X158277781Y-83100634D01*
X158259368Y-83111670D01*
X158239962Y-83120849D01*
X158219750Y-83128081D01*
X158198926Y-83133297D01*
X158177691Y-83136447D01*
X158156250Y-83137500D01*
X157643750Y-83137500D01*
X157622309Y-83136447D01*
X157601074Y-83133297D01*
X157580250Y-83128081D01*
X157560038Y-83120849D01*
X157540632Y-83111670D01*
X157522219Y-83100634D01*
X157504976Y-83087846D01*
X157489070Y-83073430D01*
X157474654Y-83057524D01*
X157461866Y-83040281D01*
X157450830Y-83021868D01*
X157441651Y-83002462D01*
X157434419Y-82982250D01*
X157429203Y-82961426D01*
X157426053Y-82940191D01*
X157425000Y-82918750D01*
X157425000Y-82481250D01*
X157426053Y-82459809D01*
X157429203Y-82438574D01*
X157434419Y-82417750D01*
X157441651Y-82397538D01*
X157450830Y-82378132D01*
X157461866Y-82359719D01*
X157474654Y-82342476D01*
X157489070Y-82326570D01*
X157504976Y-82312154D01*
X157522219Y-82299366D01*
X157540632Y-82288330D01*
X157560038Y-82279151D01*
X157580250Y-82271919D01*
X157601074Y-82266703D01*
X157622309Y-82263553D01*
X157643750Y-82262500D01*
X158156250Y-82262500D01*
X158177691Y-82263553D01*
G37*
G36*
X155677691Y-83851053D02*
G01*
X155698926Y-83854203D01*
X155719750Y-83859419D01*
X155739962Y-83866651D01*
X155759368Y-83875830D01*
X155777781Y-83886866D01*
X155795024Y-83899654D01*
X155810930Y-83914070D01*
X155825346Y-83929976D01*
X155838134Y-83947219D01*
X155849170Y-83965632D01*
X155858349Y-83985038D01*
X155865581Y-84005250D01*
X155870797Y-84026074D01*
X155873947Y-84047309D01*
X155875000Y-84068750D01*
X155875000Y-84506250D01*
X155873947Y-84527691D01*
X155870797Y-84548926D01*
X155865581Y-84569750D01*
X155858349Y-84589962D01*
X155849170Y-84609368D01*
X155838134Y-84627781D01*
X155825346Y-84645024D01*
X155810930Y-84660930D01*
X155795024Y-84675346D01*
X155777781Y-84688134D01*
X155759368Y-84699170D01*
X155739962Y-84708349D01*
X155719750Y-84715581D01*
X155698926Y-84720797D01*
X155677691Y-84723947D01*
X155656250Y-84725000D01*
X155143750Y-84725000D01*
X155122309Y-84723947D01*
X155101074Y-84720797D01*
X155080250Y-84715581D01*
X155060038Y-84708349D01*
X155040632Y-84699170D01*
X155022219Y-84688134D01*
X155004976Y-84675346D01*
X154989070Y-84660930D01*
X154974654Y-84645024D01*
X154961866Y-84627781D01*
X154950830Y-84609368D01*
X154941651Y-84589962D01*
X154934419Y-84569750D01*
X154929203Y-84548926D01*
X154926053Y-84527691D01*
X154925000Y-84506250D01*
X154925000Y-84068750D01*
X154926053Y-84047309D01*
X154929203Y-84026074D01*
X154934419Y-84005250D01*
X154941651Y-83985038D01*
X154950830Y-83965632D01*
X154961866Y-83947219D01*
X154974654Y-83929976D01*
X154989070Y-83914070D01*
X155004976Y-83899654D01*
X155022219Y-83886866D01*
X155040632Y-83875830D01*
X155060038Y-83866651D01*
X155080250Y-83859419D01*
X155101074Y-83854203D01*
X155122309Y-83851053D01*
X155143750Y-83850000D01*
X155656250Y-83850000D01*
X155677691Y-83851053D01*
G37*
G36*
X155677691Y-82276053D02*
G01*
X155698926Y-82279203D01*
X155719750Y-82284419D01*
X155739962Y-82291651D01*
X155759368Y-82300830D01*
X155777781Y-82311866D01*
X155795024Y-82324654D01*
X155810930Y-82339070D01*
X155825346Y-82354976D01*
X155838134Y-82372219D01*
X155849170Y-82390632D01*
X155858349Y-82410038D01*
X155865581Y-82430250D01*
X155870797Y-82451074D01*
X155873947Y-82472309D01*
X155875000Y-82493750D01*
X155875000Y-82931250D01*
X155873947Y-82952691D01*
X155870797Y-82973926D01*
X155865581Y-82994750D01*
X155858349Y-83014962D01*
X155849170Y-83034368D01*
X155838134Y-83052781D01*
X155825346Y-83070024D01*
X155810930Y-83085930D01*
X155795024Y-83100346D01*
X155777781Y-83113134D01*
X155759368Y-83124170D01*
X155739962Y-83133349D01*
X155719750Y-83140581D01*
X155698926Y-83145797D01*
X155677691Y-83148947D01*
X155656250Y-83150000D01*
X155143750Y-83150000D01*
X155122309Y-83148947D01*
X155101074Y-83145797D01*
X155080250Y-83140581D01*
X155060038Y-83133349D01*
X155040632Y-83124170D01*
X155022219Y-83113134D01*
X155004976Y-83100346D01*
X154989070Y-83085930D01*
X154974654Y-83070024D01*
X154961866Y-83052781D01*
X154950830Y-83034368D01*
X154941651Y-83014962D01*
X154934419Y-82994750D01*
X154929203Y-82973926D01*
X154926053Y-82952691D01*
X154925000Y-82931250D01*
X154925000Y-82493750D01*
X154926053Y-82472309D01*
X154929203Y-82451074D01*
X154934419Y-82430250D01*
X154941651Y-82410038D01*
X154950830Y-82390632D01*
X154961866Y-82372219D01*
X154974654Y-82354976D01*
X154989070Y-82339070D01*
X155004976Y-82324654D01*
X155022219Y-82311866D01*
X155040632Y-82300830D01*
X155060038Y-82291651D01*
X155080250Y-82284419D01*
X155101074Y-82279203D01*
X155122309Y-82276053D01*
X155143750Y-82275000D01*
X155656250Y-82275000D01*
X155677691Y-82276053D01*
G37*
G36*
X153177691Y-83851053D02*
G01*
X153198926Y-83854203D01*
X153219750Y-83859419D01*
X153239962Y-83866651D01*
X153259368Y-83875830D01*
X153277781Y-83886866D01*
X153295024Y-83899654D01*
X153310930Y-83914070D01*
X153325346Y-83929976D01*
X153338134Y-83947219D01*
X153349170Y-83965632D01*
X153358349Y-83985038D01*
X153365581Y-84005250D01*
X153370797Y-84026074D01*
X153373947Y-84047309D01*
X153375000Y-84068750D01*
X153375000Y-84506250D01*
X153373947Y-84527691D01*
X153370797Y-84548926D01*
X153365581Y-84569750D01*
X153358349Y-84589962D01*
X153349170Y-84609368D01*
X153338134Y-84627781D01*
X153325346Y-84645024D01*
X153310930Y-84660930D01*
X153295024Y-84675346D01*
X153277781Y-84688134D01*
X153259368Y-84699170D01*
X153239962Y-84708349D01*
X153219750Y-84715581D01*
X153198926Y-84720797D01*
X153177691Y-84723947D01*
X153156250Y-84725000D01*
X152643750Y-84725000D01*
X152622309Y-84723947D01*
X152601074Y-84720797D01*
X152580250Y-84715581D01*
X152560038Y-84708349D01*
X152540632Y-84699170D01*
X152522219Y-84688134D01*
X152504976Y-84675346D01*
X152489070Y-84660930D01*
X152474654Y-84645024D01*
X152461866Y-84627781D01*
X152450830Y-84609368D01*
X152441651Y-84589962D01*
X152434419Y-84569750D01*
X152429203Y-84548926D01*
X152426053Y-84527691D01*
X152425000Y-84506250D01*
X152425000Y-84068750D01*
X152426053Y-84047309D01*
X152429203Y-84026074D01*
X152434419Y-84005250D01*
X152441651Y-83985038D01*
X152450830Y-83965632D01*
X152461866Y-83947219D01*
X152474654Y-83929976D01*
X152489070Y-83914070D01*
X152504976Y-83899654D01*
X152522219Y-83886866D01*
X152540632Y-83875830D01*
X152560038Y-83866651D01*
X152580250Y-83859419D01*
X152601074Y-83854203D01*
X152622309Y-83851053D01*
X152643750Y-83850000D01*
X153156250Y-83850000D01*
X153177691Y-83851053D01*
G37*
G36*
X153177691Y-82276053D02*
G01*
X153198926Y-82279203D01*
X153219750Y-82284419D01*
X153239962Y-82291651D01*
X153259368Y-82300830D01*
X153277781Y-82311866D01*
X153295024Y-82324654D01*
X153310930Y-82339070D01*
X153325346Y-82354976D01*
X153338134Y-82372219D01*
X153349170Y-82390632D01*
X153358349Y-82410038D01*
X153365581Y-82430250D01*
X153370797Y-82451074D01*
X153373947Y-82472309D01*
X153375000Y-82493750D01*
X153375000Y-82931250D01*
X153373947Y-82952691D01*
X153370797Y-82973926D01*
X153365581Y-82994750D01*
X153358349Y-83014962D01*
X153349170Y-83034368D01*
X153338134Y-83052781D01*
X153325346Y-83070024D01*
X153310930Y-83085930D01*
X153295024Y-83100346D01*
X153277781Y-83113134D01*
X153259368Y-83124170D01*
X153239962Y-83133349D01*
X153219750Y-83140581D01*
X153198926Y-83145797D01*
X153177691Y-83148947D01*
X153156250Y-83150000D01*
X152643750Y-83150000D01*
X152622309Y-83148947D01*
X152601074Y-83145797D01*
X152580250Y-83140581D01*
X152560038Y-83133349D01*
X152540632Y-83124170D01*
X152522219Y-83113134D01*
X152504976Y-83100346D01*
X152489070Y-83085930D01*
X152474654Y-83070024D01*
X152461866Y-83052781D01*
X152450830Y-83034368D01*
X152441651Y-83014962D01*
X152434419Y-82994750D01*
X152429203Y-82973926D01*
X152426053Y-82952691D01*
X152425000Y-82931250D01*
X152425000Y-82493750D01*
X152426053Y-82472309D01*
X152429203Y-82451074D01*
X152434419Y-82430250D01*
X152441651Y-82410038D01*
X152450830Y-82390632D01*
X152461866Y-82372219D01*
X152474654Y-82354976D01*
X152489070Y-82339070D01*
X152504976Y-82324654D01*
X152522219Y-82311866D01*
X152540632Y-82300830D01*
X152560038Y-82291651D01*
X152580250Y-82284419D01*
X152601074Y-82279203D01*
X152622309Y-82276053D01*
X152643750Y-82275000D01*
X153156250Y-82275000D01*
X153177691Y-82276053D01*
G37*
G36*
X150677691Y-83851053D02*
G01*
X150698926Y-83854203D01*
X150719750Y-83859419D01*
X150739962Y-83866651D01*
X150759368Y-83875830D01*
X150777781Y-83886866D01*
X150795024Y-83899654D01*
X150810930Y-83914070D01*
X150825346Y-83929976D01*
X150838134Y-83947219D01*
X150849170Y-83965632D01*
X150858349Y-83985038D01*
X150865581Y-84005250D01*
X150870797Y-84026074D01*
X150873947Y-84047309D01*
X150875000Y-84068750D01*
X150875000Y-84506250D01*
X150873947Y-84527691D01*
X150870797Y-84548926D01*
X150865581Y-84569750D01*
X150858349Y-84589962D01*
X150849170Y-84609368D01*
X150838134Y-84627781D01*
X150825346Y-84645024D01*
X150810930Y-84660930D01*
X150795024Y-84675346D01*
X150777781Y-84688134D01*
X150759368Y-84699170D01*
X150739962Y-84708349D01*
X150719750Y-84715581D01*
X150698926Y-84720797D01*
X150677691Y-84723947D01*
X150656250Y-84725000D01*
X150143750Y-84725000D01*
X150122309Y-84723947D01*
X150101074Y-84720797D01*
X150080250Y-84715581D01*
X150060038Y-84708349D01*
X150040632Y-84699170D01*
X150022219Y-84688134D01*
X150004976Y-84675346D01*
X149989070Y-84660930D01*
X149974654Y-84645024D01*
X149961866Y-84627781D01*
X149950830Y-84609368D01*
X149941651Y-84589962D01*
X149934419Y-84569750D01*
X149929203Y-84548926D01*
X149926053Y-84527691D01*
X149925000Y-84506250D01*
X149925000Y-84068750D01*
X149926053Y-84047309D01*
X149929203Y-84026074D01*
X149934419Y-84005250D01*
X149941651Y-83985038D01*
X149950830Y-83965632D01*
X149961866Y-83947219D01*
X149974654Y-83929976D01*
X149989070Y-83914070D01*
X150004976Y-83899654D01*
X150022219Y-83886866D01*
X150040632Y-83875830D01*
X150060038Y-83866651D01*
X150080250Y-83859419D01*
X150101074Y-83854203D01*
X150122309Y-83851053D01*
X150143750Y-83850000D01*
X150656250Y-83850000D01*
X150677691Y-83851053D01*
G37*
G36*
X150677691Y-82276053D02*
G01*
X150698926Y-82279203D01*
X150719750Y-82284419D01*
X150739962Y-82291651D01*
X150759368Y-82300830D01*
X150777781Y-82311866D01*
X150795024Y-82324654D01*
X150810930Y-82339070D01*
X150825346Y-82354976D01*
X150838134Y-82372219D01*
X150849170Y-82390632D01*
X150858349Y-82410038D01*
X150865581Y-82430250D01*
X150870797Y-82451074D01*
X150873947Y-82472309D01*
X150875000Y-82493750D01*
X150875000Y-82931250D01*
X150873947Y-82952691D01*
X150870797Y-82973926D01*
X150865581Y-82994750D01*
X150858349Y-83014962D01*
X150849170Y-83034368D01*
X150838134Y-83052781D01*
X150825346Y-83070024D01*
X150810930Y-83085930D01*
X150795024Y-83100346D01*
X150777781Y-83113134D01*
X150759368Y-83124170D01*
X150739962Y-83133349D01*
X150719750Y-83140581D01*
X150698926Y-83145797D01*
X150677691Y-83148947D01*
X150656250Y-83150000D01*
X150143750Y-83150000D01*
X150122309Y-83148947D01*
X150101074Y-83145797D01*
X150080250Y-83140581D01*
X150060038Y-83133349D01*
X150040632Y-83124170D01*
X150022219Y-83113134D01*
X150004976Y-83100346D01*
X149989070Y-83085930D01*
X149974654Y-83070024D01*
X149961866Y-83052781D01*
X149950830Y-83034368D01*
X149941651Y-83014962D01*
X149934419Y-82994750D01*
X149929203Y-82973926D01*
X149926053Y-82952691D01*
X149925000Y-82931250D01*
X149925000Y-82493750D01*
X149926053Y-82472309D01*
X149929203Y-82451074D01*
X149934419Y-82430250D01*
X149941651Y-82410038D01*
X149950830Y-82390632D01*
X149961866Y-82372219D01*
X149974654Y-82354976D01*
X149989070Y-82339070D01*
X150004976Y-82324654D01*
X150022219Y-82311866D01*
X150040632Y-82300830D01*
X150060038Y-82291651D01*
X150080250Y-82284419D01*
X150101074Y-82279203D01*
X150122309Y-82276053D01*
X150143750Y-82275000D01*
X150656250Y-82275000D01*
X150677691Y-82276053D01*
G37*
G36*
X148077691Y-83851053D02*
G01*
X148098926Y-83854203D01*
X148119750Y-83859419D01*
X148139962Y-83866651D01*
X148159368Y-83875830D01*
X148177781Y-83886866D01*
X148195024Y-83899654D01*
X148210930Y-83914070D01*
X148225346Y-83929976D01*
X148238134Y-83947219D01*
X148249170Y-83965632D01*
X148258349Y-83985038D01*
X148265581Y-84005250D01*
X148270797Y-84026074D01*
X148273947Y-84047309D01*
X148275000Y-84068750D01*
X148275000Y-84506250D01*
X148273947Y-84527691D01*
X148270797Y-84548926D01*
X148265581Y-84569750D01*
X148258349Y-84589962D01*
X148249170Y-84609368D01*
X148238134Y-84627781D01*
X148225346Y-84645024D01*
X148210930Y-84660930D01*
X148195024Y-84675346D01*
X148177781Y-84688134D01*
X148159368Y-84699170D01*
X148139962Y-84708349D01*
X148119750Y-84715581D01*
X148098926Y-84720797D01*
X148077691Y-84723947D01*
X148056250Y-84725000D01*
X147543750Y-84725000D01*
X147522309Y-84723947D01*
X147501074Y-84720797D01*
X147480250Y-84715581D01*
X147460038Y-84708349D01*
X147440632Y-84699170D01*
X147422219Y-84688134D01*
X147404976Y-84675346D01*
X147389070Y-84660930D01*
X147374654Y-84645024D01*
X147361866Y-84627781D01*
X147350830Y-84609368D01*
X147341651Y-84589962D01*
X147334419Y-84569750D01*
X147329203Y-84548926D01*
X147326053Y-84527691D01*
X147325000Y-84506250D01*
X147325000Y-84068750D01*
X147326053Y-84047309D01*
X147329203Y-84026074D01*
X147334419Y-84005250D01*
X147341651Y-83985038D01*
X147350830Y-83965632D01*
X147361866Y-83947219D01*
X147374654Y-83929976D01*
X147389070Y-83914070D01*
X147404976Y-83899654D01*
X147422219Y-83886866D01*
X147440632Y-83875830D01*
X147460038Y-83866651D01*
X147480250Y-83859419D01*
X147501074Y-83854203D01*
X147522309Y-83851053D01*
X147543750Y-83850000D01*
X148056250Y-83850000D01*
X148077691Y-83851053D01*
G37*
G36*
X148077691Y-82276053D02*
G01*
X148098926Y-82279203D01*
X148119750Y-82284419D01*
X148139962Y-82291651D01*
X148159368Y-82300830D01*
X148177781Y-82311866D01*
X148195024Y-82324654D01*
X148210930Y-82339070D01*
X148225346Y-82354976D01*
X148238134Y-82372219D01*
X148249170Y-82390632D01*
X148258349Y-82410038D01*
X148265581Y-82430250D01*
X148270797Y-82451074D01*
X148273947Y-82472309D01*
X148275000Y-82493750D01*
X148275000Y-82931250D01*
X148273947Y-82952691D01*
X148270797Y-82973926D01*
X148265581Y-82994750D01*
X148258349Y-83014962D01*
X148249170Y-83034368D01*
X148238134Y-83052781D01*
X148225346Y-83070024D01*
X148210930Y-83085930D01*
X148195024Y-83100346D01*
X148177781Y-83113134D01*
X148159368Y-83124170D01*
X148139962Y-83133349D01*
X148119750Y-83140581D01*
X148098926Y-83145797D01*
X148077691Y-83148947D01*
X148056250Y-83150000D01*
X147543750Y-83150000D01*
X147522309Y-83148947D01*
X147501074Y-83145797D01*
X147480250Y-83140581D01*
X147460038Y-83133349D01*
X147440632Y-83124170D01*
X147422219Y-83113134D01*
X147404976Y-83100346D01*
X147389070Y-83085930D01*
X147374654Y-83070024D01*
X147361866Y-83052781D01*
X147350830Y-83034368D01*
X147341651Y-83014962D01*
X147334419Y-82994750D01*
X147329203Y-82973926D01*
X147326053Y-82952691D01*
X147325000Y-82931250D01*
X147325000Y-82493750D01*
X147326053Y-82472309D01*
X147329203Y-82451074D01*
X147334419Y-82430250D01*
X147341651Y-82410038D01*
X147350830Y-82390632D01*
X147361866Y-82372219D01*
X147374654Y-82354976D01*
X147389070Y-82339070D01*
X147404976Y-82324654D01*
X147422219Y-82311866D01*
X147440632Y-82300830D01*
X147460038Y-82291651D01*
X147480250Y-82284419D01*
X147501074Y-82279203D01*
X147522309Y-82276053D01*
X147543750Y-82275000D01*
X148056250Y-82275000D01*
X148077691Y-82276053D01*
G37*
G36*
X115077691Y-83938553D02*
G01*
X115098926Y-83941703D01*
X115119750Y-83946919D01*
X115139962Y-83954151D01*
X115159368Y-83963330D01*
X115177781Y-83974366D01*
X115195024Y-83987154D01*
X115210930Y-84001570D01*
X115225346Y-84017476D01*
X115238134Y-84034719D01*
X115249170Y-84053132D01*
X115258349Y-84072538D01*
X115265581Y-84092750D01*
X115270797Y-84113574D01*
X115273947Y-84134809D01*
X115275000Y-84156250D01*
X115275000Y-84593750D01*
X115273947Y-84615191D01*
X115270797Y-84636426D01*
X115265581Y-84657250D01*
X115258349Y-84677462D01*
X115249170Y-84696868D01*
X115238134Y-84715281D01*
X115225346Y-84732524D01*
X115210930Y-84748430D01*
X115195024Y-84762846D01*
X115177781Y-84775634D01*
X115159368Y-84786670D01*
X115139962Y-84795849D01*
X115119750Y-84803081D01*
X115098926Y-84808297D01*
X115077691Y-84811447D01*
X115056250Y-84812500D01*
X114543750Y-84812500D01*
X114522309Y-84811447D01*
X114501074Y-84808297D01*
X114480250Y-84803081D01*
X114460038Y-84795849D01*
X114440632Y-84786670D01*
X114422219Y-84775634D01*
X114404976Y-84762846D01*
X114389070Y-84748430D01*
X114374654Y-84732524D01*
X114361866Y-84715281D01*
X114350830Y-84696868D01*
X114341651Y-84677462D01*
X114334419Y-84657250D01*
X114329203Y-84636426D01*
X114326053Y-84615191D01*
X114325000Y-84593750D01*
X114325000Y-84156250D01*
X114326053Y-84134809D01*
X114329203Y-84113574D01*
X114334419Y-84092750D01*
X114341651Y-84072538D01*
X114350830Y-84053132D01*
X114361866Y-84034719D01*
X114374654Y-84017476D01*
X114389070Y-84001570D01*
X114404976Y-83987154D01*
X114422219Y-83974366D01*
X114440632Y-83963330D01*
X114460038Y-83954151D01*
X114480250Y-83946919D01*
X114501074Y-83941703D01*
X114522309Y-83938553D01*
X114543750Y-83937500D01*
X115056250Y-83937500D01*
X115077691Y-83938553D01*
G37*
G36*
X115077691Y-82363553D02*
G01*
X115098926Y-82366703D01*
X115119750Y-82371919D01*
X115139962Y-82379151D01*
X115159368Y-82388330D01*
X115177781Y-82399366D01*
X115195024Y-82412154D01*
X115210930Y-82426570D01*
X115225346Y-82442476D01*
X115238134Y-82459719D01*
X115249170Y-82478132D01*
X115258349Y-82497538D01*
X115265581Y-82517750D01*
X115270797Y-82538574D01*
X115273947Y-82559809D01*
X115275000Y-82581250D01*
X115275000Y-83018750D01*
X115273947Y-83040191D01*
X115270797Y-83061426D01*
X115265581Y-83082250D01*
X115258349Y-83102462D01*
X115249170Y-83121868D01*
X115238134Y-83140281D01*
X115225346Y-83157524D01*
X115210930Y-83173430D01*
X115195024Y-83187846D01*
X115177781Y-83200634D01*
X115159368Y-83211670D01*
X115139962Y-83220849D01*
X115119750Y-83228081D01*
X115098926Y-83233297D01*
X115077691Y-83236447D01*
X115056250Y-83237500D01*
X114543750Y-83237500D01*
X114522309Y-83236447D01*
X114501074Y-83233297D01*
X114480250Y-83228081D01*
X114460038Y-83220849D01*
X114440632Y-83211670D01*
X114422219Y-83200634D01*
X114404976Y-83187846D01*
X114389070Y-83173430D01*
X114374654Y-83157524D01*
X114361866Y-83140281D01*
X114350830Y-83121868D01*
X114341651Y-83102462D01*
X114334419Y-83082250D01*
X114329203Y-83061426D01*
X114326053Y-83040191D01*
X114325000Y-83018750D01*
X114325000Y-82581250D01*
X114326053Y-82559809D01*
X114329203Y-82538574D01*
X114334419Y-82517750D01*
X114341651Y-82497538D01*
X114350830Y-82478132D01*
X114361866Y-82459719D01*
X114374654Y-82442476D01*
X114389070Y-82426570D01*
X114404976Y-82412154D01*
X114422219Y-82399366D01*
X114440632Y-82388330D01*
X114460038Y-82379151D01*
X114480250Y-82371919D01*
X114501074Y-82366703D01*
X114522309Y-82363553D01*
X114543750Y-82362500D01*
X115056250Y-82362500D01*
X115077691Y-82363553D01*
G37*
G36*
X112477691Y-83951053D02*
G01*
X112498926Y-83954203D01*
X112519750Y-83959419D01*
X112539962Y-83966651D01*
X112559368Y-83975830D01*
X112577781Y-83986866D01*
X112595024Y-83999654D01*
X112610930Y-84014070D01*
X112625346Y-84029976D01*
X112638134Y-84047219D01*
X112649170Y-84065632D01*
X112658349Y-84085038D01*
X112665581Y-84105250D01*
X112670797Y-84126074D01*
X112673947Y-84147309D01*
X112675000Y-84168750D01*
X112675000Y-84606250D01*
X112673947Y-84627691D01*
X112670797Y-84648926D01*
X112665581Y-84669750D01*
X112658349Y-84689962D01*
X112649170Y-84709368D01*
X112638134Y-84727781D01*
X112625346Y-84745024D01*
X112610930Y-84760930D01*
X112595024Y-84775346D01*
X112577781Y-84788134D01*
X112559368Y-84799170D01*
X112539962Y-84808349D01*
X112519750Y-84815581D01*
X112498926Y-84820797D01*
X112477691Y-84823947D01*
X112456250Y-84825000D01*
X111943750Y-84825000D01*
X111922309Y-84823947D01*
X111901074Y-84820797D01*
X111880250Y-84815581D01*
X111860038Y-84808349D01*
X111840632Y-84799170D01*
X111822219Y-84788134D01*
X111804976Y-84775346D01*
X111789070Y-84760930D01*
X111774654Y-84745024D01*
X111761866Y-84727781D01*
X111750830Y-84709368D01*
X111741651Y-84689962D01*
X111734419Y-84669750D01*
X111729203Y-84648926D01*
X111726053Y-84627691D01*
X111725000Y-84606250D01*
X111725000Y-84168750D01*
X111726053Y-84147309D01*
X111729203Y-84126074D01*
X111734419Y-84105250D01*
X111741651Y-84085038D01*
X111750830Y-84065632D01*
X111761866Y-84047219D01*
X111774654Y-84029976D01*
X111789070Y-84014070D01*
X111804976Y-83999654D01*
X111822219Y-83986866D01*
X111840632Y-83975830D01*
X111860038Y-83966651D01*
X111880250Y-83959419D01*
X111901074Y-83954203D01*
X111922309Y-83951053D01*
X111943750Y-83950000D01*
X112456250Y-83950000D01*
X112477691Y-83951053D01*
G37*
G36*
X112477691Y-82376053D02*
G01*
X112498926Y-82379203D01*
X112519750Y-82384419D01*
X112539962Y-82391651D01*
X112559368Y-82400830D01*
X112577781Y-82411866D01*
X112595024Y-82424654D01*
X112610930Y-82439070D01*
X112625346Y-82454976D01*
X112638134Y-82472219D01*
X112649170Y-82490632D01*
X112658349Y-82510038D01*
X112665581Y-82530250D01*
X112670797Y-82551074D01*
X112673947Y-82572309D01*
X112675000Y-82593750D01*
X112675000Y-83031250D01*
X112673947Y-83052691D01*
X112670797Y-83073926D01*
X112665581Y-83094750D01*
X112658349Y-83114962D01*
X112649170Y-83134368D01*
X112638134Y-83152781D01*
X112625346Y-83170024D01*
X112610930Y-83185930D01*
X112595024Y-83200346D01*
X112577781Y-83213134D01*
X112559368Y-83224170D01*
X112539962Y-83233349D01*
X112519750Y-83240581D01*
X112498926Y-83245797D01*
X112477691Y-83248947D01*
X112456250Y-83250000D01*
X111943750Y-83250000D01*
X111922309Y-83248947D01*
X111901074Y-83245797D01*
X111880250Y-83240581D01*
X111860038Y-83233349D01*
X111840632Y-83224170D01*
X111822219Y-83213134D01*
X111804976Y-83200346D01*
X111789070Y-83185930D01*
X111774654Y-83170024D01*
X111761866Y-83152781D01*
X111750830Y-83134368D01*
X111741651Y-83114962D01*
X111734419Y-83094750D01*
X111729203Y-83073926D01*
X111726053Y-83052691D01*
X111725000Y-83031250D01*
X111725000Y-82593750D01*
X111726053Y-82572309D01*
X111729203Y-82551074D01*
X111734419Y-82530250D01*
X111741651Y-82510038D01*
X111750830Y-82490632D01*
X111761866Y-82472219D01*
X111774654Y-82454976D01*
X111789070Y-82439070D01*
X111804976Y-82424654D01*
X111822219Y-82411866D01*
X111840632Y-82400830D01*
X111860038Y-82391651D01*
X111880250Y-82384419D01*
X111901074Y-82379203D01*
X111922309Y-82376053D01*
X111943750Y-82375000D01*
X112456250Y-82375000D01*
X112477691Y-82376053D01*
G37*
G36*
X109977691Y-83951053D02*
G01*
X109998926Y-83954203D01*
X110019750Y-83959419D01*
X110039962Y-83966651D01*
X110059368Y-83975830D01*
X110077781Y-83986866D01*
X110095024Y-83999654D01*
X110110930Y-84014070D01*
X110125346Y-84029976D01*
X110138134Y-84047219D01*
X110149170Y-84065632D01*
X110158349Y-84085038D01*
X110165581Y-84105250D01*
X110170797Y-84126074D01*
X110173947Y-84147309D01*
X110175000Y-84168750D01*
X110175000Y-84606250D01*
X110173947Y-84627691D01*
X110170797Y-84648926D01*
X110165581Y-84669750D01*
X110158349Y-84689962D01*
X110149170Y-84709368D01*
X110138134Y-84727781D01*
X110125346Y-84745024D01*
X110110930Y-84760930D01*
X110095024Y-84775346D01*
X110077781Y-84788134D01*
X110059368Y-84799170D01*
X110039962Y-84808349D01*
X110019750Y-84815581D01*
X109998926Y-84820797D01*
X109977691Y-84823947D01*
X109956250Y-84825000D01*
X109443750Y-84825000D01*
X109422309Y-84823947D01*
X109401074Y-84820797D01*
X109380250Y-84815581D01*
X109360038Y-84808349D01*
X109340632Y-84799170D01*
X109322219Y-84788134D01*
X109304976Y-84775346D01*
X109289070Y-84760930D01*
X109274654Y-84745024D01*
X109261866Y-84727781D01*
X109250830Y-84709368D01*
X109241651Y-84689962D01*
X109234419Y-84669750D01*
X109229203Y-84648926D01*
X109226053Y-84627691D01*
X109225000Y-84606250D01*
X109225000Y-84168750D01*
X109226053Y-84147309D01*
X109229203Y-84126074D01*
X109234419Y-84105250D01*
X109241651Y-84085038D01*
X109250830Y-84065632D01*
X109261866Y-84047219D01*
X109274654Y-84029976D01*
X109289070Y-84014070D01*
X109304976Y-83999654D01*
X109322219Y-83986866D01*
X109340632Y-83975830D01*
X109360038Y-83966651D01*
X109380250Y-83959419D01*
X109401074Y-83954203D01*
X109422309Y-83951053D01*
X109443750Y-83950000D01*
X109956250Y-83950000D01*
X109977691Y-83951053D01*
G37*
G36*
X109977691Y-82376053D02*
G01*
X109998926Y-82379203D01*
X110019750Y-82384419D01*
X110039962Y-82391651D01*
X110059368Y-82400830D01*
X110077781Y-82411866D01*
X110095024Y-82424654D01*
X110110930Y-82439070D01*
X110125346Y-82454976D01*
X110138134Y-82472219D01*
X110149170Y-82490632D01*
X110158349Y-82510038D01*
X110165581Y-82530250D01*
X110170797Y-82551074D01*
X110173947Y-82572309D01*
X110175000Y-82593750D01*
X110175000Y-83031250D01*
X110173947Y-83052691D01*
X110170797Y-83073926D01*
X110165581Y-83094750D01*
X110158349Y-83114962D01*
X110149170Y-83134368D01*
X110138134Y-83152781D01*
X110125346Y-83170024D01*
X110110930Y-83185930D01*
X110095024Y-83200346D01*
X110077781Y-83213134D01*
X110059368Y-83224170D01*
X110039962Y-83233349D01*
X110019750Y-83240581D01*
X109998926Y-83245797D01*
X109977691Y-83248947D01*
X109956250Y-83250000D01*
X109443750Y-83250000D01*
X109422309Y-83248947D01*
X109401074Y-83245797D01*
X109380250Y-83240581D01*
X109360038Y-83233349D01*
X109340632Y-83224170D01*
X109322219Y-83213134D01*
X109304976Y-83200346D01*
X109289070Y-83185930D01*
X109274654Y-83170024D01*
X109261866Y-83152781D01*
X109250830Y-83134368D01*
X109241651Y-83114962D01*
X109234419Y-83094750D01*
X109229203Y-83073926D01*
X109226053Y-83052691D01*
X109225000Y-83031250D01*
X109225000Y-82593750D01*
X109226053Y-82572309D01*
X109229203Y-82551074D01*
X109234419Y-82530250D01*
X109241651Y-82510038D01*
X109250830Y-82490632D01*
X109261866Y-82472219D01*
X109274654Y-82454976D01*
X109289070Y-82439070D01*
X109304976Y-82424654D01*
X109322219Y-82411866D01*
X109340632Y-82400830D01*
X109360038Y-82391651D01*
X109380250Y-82384419D01*
X109401074Y-82379203D01*
X109422309Y-82376053D01*
X109443750Y-82375000D01*
X109956250Y-82375000D01*
X109977691Y-82376053D01*
G37*
G36*
X107377691Y-83951053D02*
G01*
X107398926Y-83954203D01*
X107419750Y-83959419D01*
X107439962Y-83966651D01*
X107459368Y-83975830D01*
X107477781Y-83986866D01*
X107495024Y-83999654D01*
X107510930Y-84014070D01*
X107525346Y-84029976D01*
X107538134Y-84047219D01*
X107549170Y-84065632D01*
X107558349Y-84085038D01*
X107565581Y-84105250D01*
X107570797Y-84126074D01*
X107573947Y-84147309D01*
X107575000Y-84168750D01*
X107575000Y-84606250D01*
X107573947Y-84627691D01*
X107570797Y-84648926D01*
X107565581Y-84669750D01*
X107558349Y-84689962D01*
X107549170Y-84709368D01*
X107538134Y-84727781D01*
X107525346Y-84745024D01*
X107510930Y-84760930D01*
X107495024Y-84775346D01*
X107477781Y-84788134D01*
X107459368Y-84799170D01*
X107439962Y-84808349D01*
X107419750Y-84815581D01*
X107398926Y-84820797D01*
X107377691Y-84823947D01*
X107356250Y-84825000D01*
X106843750Y-84825000D01*
X106822309Y-84823947D01*
X106801074Y-84820797D01*
X106780250Y-84815581D01*
X106760038Y-84808349D01*
X106740632Y-84799170D01*
X106722219Y-84788134D01*
X106704976Y-84775346D01*
X106689070Y-84760930D01*
X106674654Y-84745024D01*
X106661866Y-84727781D01*
X106650830Y-84709368D01*
X106641651Y-84689962D01*
X106634419Y-84669750D01*
X106629203Y-84648926D01*
X106626053Y-84627691D01*
X106625000Y-84606250D01*
X106625000Y-84168750D01*
X106626053Y-84147309D01*
X106629203Y-84126074D01*
X106634419Y-84105250D01*
X106641651Y-84085038D01*
X106650830Y-84065632D01*
X106661866Y-84047219D01*
X106674654Y-84029976D01*
X106689070Y-84014070D01*
X106704976Y-83999654D01*
X106722219Y-83986866D01*
X106740632Y-83975830D01*
X106760038Y-83966651D01*
X106780250Y-83959419D01*
X106801074Y-83954203D01*
X106822309Y-83951053D01*
X106843750Y-83950000D01*
X107356250Y-83950000D01*
X107377691Y-83951053D01*
G37*
G36*
X107377691Y-82376053D02*
G01*
X107398926Y-82379203D01*
X107419750Y-82384419D01*
X107439962Y-82391651D01*
X107459368Y-82400830D01*
X107477781Y-82411866D01*
X107495024Y-82424654D01*
X107510930Y-82439070D01*
X107525346Y-82454976D01*
X107538134Y-82472219D01*
X107549170Y-82490632D01*
X107558349Y-82510038D01*
X107565581Y-82530250D01*
X107570797Y-82551074D01*
X107573947Y-82572309D01*
X107575000Y-82593750D01*
X107575000Y-83031250D01*
X107573947Y-83052691D01*
X107570797Y-83073926D01*
X107565581Y-83094750D01*
X107558349Y-83114962D01*
X107549170Y-83134368D01*
X107538134Y-83152781D01*
X107525346Y-83170024D01*
X107510930Y-83185930D01*
X107495024Y-83200346D01*
X107477781Y-83213134D01*
X107459368Y-83224170D01*
X107439962Y-83233349D01*
X107419750Y-83240581D01*
X107398926Y-83245797D01*
X107377691Y-83248947D01*
X107356250Y-83250000D01*
X106843750Y-83250000D01*
X106822309Y-83248947D01*
X106801074Y-83245797D01*
X106780250Y-83240581D01*
X106760038Y-83233349D01*
X106740632Y-83224170D01*
X106722219Y-83213134D01*
X106704976Y-83200346D01*
X106689070Y-83185930D01*
X106674654Y-83170024D01*
X106661866Y-83152781D01*
X106650830Y-83134368D01*
X106641651Y-83114962D01*
X106634419Y-83094750D01*
X106629203Y-83073926D01*
X106626053Y-83052691D01*
X106625000Y-83031250D01*
X106625000Y-82593750D01*
X106626053Y-82572309D01*
X106629203Y-82551074D01*
X106634419Y-82530250D01*
X106641651Y-82510038D01*
X106650830Y-82490632D01*
X106661866Y-82472219D01*
X106674654Y-82454976D01*
X106689070Y-82439070D01*
X106704976Y-82424654D01*
X106722219Y-82411866D01*
X106740632Y-82400830D01*
X106760038Y-82391651D01*
X106780250Y-82384419D01*
X106801074Y-82379203D01*
X106822309Y-82376053D01*
X106843750Y-82375000D01*
X107356250Y-82375000D01*
X107377691Y-82376053D01*
G37*
G36*
X104877691Y-83951053D02*
G01*
X104898926Y-83954203D01*
X104919750Y-83959419D01*
X104939962Y-83966651D01*
X104959368Y-83975830D01*
X104977781Y-83986866D01*
X104995024Y-83999654D01*
X105010930Y-84014070D01*
X105025346Y-84029976D01*
X105038134Y-84047219D01*
X105049170Y-84065632D01*
X105058349Y-84085038D01*
X105065581Y-84105250D01*
X105070797Y-84126074D01*
X105073947Y-84147309D01*
X105075000Y-84168750D01*
X105075000Y-84606250D01*
X105073947Y-84627691D01*
X105070797Y-84648926D01*
X105065581Y-84669750D01*
X105058349Y-84689962D01*
X105049170Y-84709368D01*
X105038134Y-84727781D01*
X105025346Y-84745024D01*
X105010930Y-84760930D01*
X104995024Y-84775346D01*
X104977781Y-84788134D01*
X104959368Y-84799170D01*
X104939962Y-84808349D01*
X104919750Y-84815581D01*
X104898926Y-84820797D01*
X104877691Y-84823947D01*
X104856250Y-84825000D01*
X104343750Y-84825000D01*
X104322309Y-84823947D01*
X104301074Y-84820797D01*
X104280250Y-84815581D01*
X104260038Y-84808349D01*
X104240632Y-84799170D01*
X104222219Y-84788134D01*
X104204976Y-84775346D01*
X104189070Y-84760930D01*
X104174654Y-84745024D01*
X104161866Y-84727781D01*
X104150830Y-84709368D01*
X104141651Y-84689962D01*
X104134419Y-84669750D01*
X104129203Y-84648926D01*
X104126053Y-84627691D01*
X104125000Y-84606250D01*
X104125000Y-84168750D01*
X104126053Y-84147309D01*
X104129203Y-84126074D01*
X104134419Y-84105250D01*
X104141651Y-84085038D01*
X104150830Y-84065632D01*
X104161866Y-84047219D01*
X104174654Y-84029976D01*
X104189070Y-84014070D01*
X104204976Y-83999654D01*
X104222219Y-83986866D01*
X104240632Y-83975830D01*
X104260038Y-83966651D01*
X104280250Y-83959419D01*
X104301074Y-83954203D01*
X104322309Y-83951053D01*
X104343750Y-83950000D01*
X104856250Y-83950000D01*
X104877691Y-83951053D01*
G37*
G36*
X104877691Y-82376053D02*
G01*
X104898926Y-82379203D01*
X104919750Y-82384419D01*
X104939962Y-82391651D01*
X104959368Y-82400830D01*
X104977781Y-82411866D01*
X104995024Y-82424654D01*
X105010930Y-82439070D01*
X105025346Y-82454976D01*
X105038134Y-82472219D01*
X105049170Y-82490632D01*
X105058349Y-82510038D01*
X105065581Y-82530250D01*
X105070797Y-82551074D01*
X105073947Y-82572309D01*
X105075000Y-82593750D01*
X105075000Y-83031250D01*
X105073947Y-83052691D01*
X105070797Y-83073926D01*
X105065581Y-83094750D01*
X105058349Y-83114962D01*
X105049170Y-83134368D01*
X105038134Y-83152781D01*
X105025346Y-83170024D01*
X105010930Y-83185930D01*
X104995024Y-83200346D01*
X104977781Y-83213134D01*
X104959368Y-83224170D01*
X104939962Y-83233349D01*
X104919750Y-83240581D01*
X104898926Y-83245797D01*
X104877691Y-83248947D01*
X104856250Y-83250000D01*
X104343750Y-83250000D01*
X104322309Y-83248947D01*
X104301074Y-83245797D01*
X104280250Y-83240581D01*
X104260038Y-83233349D01*
X104240632Y-83224170D01*
X104222219Y-83213134D01*
X104204976Y-83200346D01*
X104189070Y-83185930D01*
X104174654Y-83170024D01*
X104161866Y-83152781D01*
X104150830Y-83134368D01*
X104141651Y-83114962D01*
X104134419Y-83094750D01*
X104129203Y-83073926D01*
X104126053Y-83052691D01*
X104125000Y-83031250D01*
X104125000Y-82593750D01*
X104126053Y-82572309D01*
X104129203Y-82551074D01*
X104134419Y-82530250D01*
X104141651Y-82510038D01*
X104150830Y-82490632D01*
X104161866Y-82472219D01*
X104174654Y-82454976D01*
X104189070Y-82439070D01*
X104204976Y-82424654D01*
X104222219Y-82411866D01*
X104240632Y-82400830D01*
X104260038Y-82391651D01*
X104280250Y-82384419D01*
X104301074Y-82379203D01*
X104322309Y-82376053D01*
X104343750Y-82375000D01*
X104856250Y-82375000D01*
X104877691Y-82376053D01*
G37*
G36*
X102377691Y-83951053D02*
G01*
X102398926Y-83954203D01*
X102419750Y-83959419D01*
X102439962Y-83966651D01*
X102459368Y-83975830D01*
X102477781Y-83986866D01*
X102495024Y-83999654D01*
X102510930Y-84014070D01*
X102525346Y-84029976D01*
X102538134Y-84047219D01*
X102549170Y-84065632D01*
X102558349Y-84085038D01*
X102565581Y-84105250D01*
X102570797Y-84126074D01*
X102573947Y-84147309D01*
X102575000Y-84168750D01*
X102575000Y-84606250D01*
X102573947Y-84627691D01*
X102570797Y-84648926D01*
X102565581Y-84669750D01*
X102558349Y-84689962D01*
X102549170Y-84709368D01*
X102538134Y-84727781D01*
X102525346Y-84745024D01*
X102510930Y-84760930D01*
X102495024Y-84775346D01*
X102477781Y-84788134D01*
X102459368Y-84799170D01*
X102439962Y-84808349D01*
X102419750Y-84815581D01*
X102398926Y-84820797D01*
X102377691Y-84823947D01*
X102356250Y-84825000D01*
X101843750Y-84825000D01*
X101822309Y-84823947D01*
X101801074Y-84820797D01*
X101780250Y-84815581D01*
X101760038Y-84808349D01*
X101740632Y-84799170D01*
X101722219Y-84788134D01*
X101704976Y-84775346D01*
X101689070Y-84760930D01*
X101674654Y-84745024D01*
X101661866Y-84727781D01*
X101650830Y-84709368D01*
X101641651Y-84689962D01*
X101634419Y-84669750D01*
X101629203Y-84648926D01*
X101626053Y-84627691D01*
X101625000Y-84606250D01*
X101625000Y-84168750D01*
X101626053Y-84147309D01*
X101629203Y-84126074D01*
X101634419Y-84105250D01*
X101641651Y-84085038D01*
X101650830Y-84065632D01*
X101661866Y-84047219D01*
X101674654Y-84029976D01*
X101689070Y-84014070D01*
X101704976Y-83999654D01*
X101722219Y-83986866D01*
X101740632Y-83975830D01*
X101760038Y-83966651D01*
X101780250Y-83959419D01*
X101801074Y-83954203D01*
X101822309Y-83951053D01*
X101843750Y-83950000D01*
X102356250Y-83950000D01*
X102377691Y-83951053D01*
G37*
G36*
X102377691Y-82376053D02*
G01*
X102398926Y-82379203D01*
X102419750Y-82384419D01*
X102439962Y-82391651D01*
X102459368Y-82400830D01*
X102477781Y-82411866D01*
X102495024Y-82424654D01*
X102510930Y-82439070D01*
X102525346Y-82454976D01*
X102538134Y-82472219D01*
X102549170Y-82490632D01*
X102558349Y-82510038D01*
X102565581Y-82530250D01*
X102570797Y-82551074D01*
X102573947Y-82572309D01*
X102575000Y-82593750D01*
X102575000Y-83031250D01*
X102573947Y-83052691D01*
X102570797Y-83073926D01*
X102565581Y-83094750D01*
X102558349Y-83114962D01*
X102549170Y-83134368D01*
X102538134Y-83152781D01*
X102525346Y-83170024D01*
X102510930Y-83185930D01*
X102495024Y-83200346D01*
X102477781Y-83213134D01*
X102459368Y-83224170D01*
X102439962Y-83233349D01*
X102419750Y-83240581D01*
X102398926Y-83245797D01*
X102377691Y-83248947D01*
X102356250Y-83250000D01*
X101843750Y-83250000D01*
X101822309Y-83248947D01*
X101801074Y-83245797D01*
X101780250Y-83240581D01*
X101760038Y-83233349D01*
X101740632Y-83224170D01*
X101722219Y-83213134D01*
X101704976Y-83200346D01*
X101689070Y-83185930D01*
X101674654Y-83170024D01*
X101661866Y-83152781D01*
X101650830Y-83134368D01*
X101641651Y-83114962D01*
X101634419Y-83094750D01*
X101629203Y-83073926D01*
X101626053Y-83052691D01*
X101625000Y-83031250D01*
X101625000Y-82593750D01*
X101626053Y-82572309D01*
X101629203Y-82551074D01*
X101634419Y-82530250D01*
X101641651Y-82510038D01*
X101650830Y-82490632D01*
X101661866Y-82472219D01*
X101674654Y-82454976D01*
X101689070Y-82439070D01*
X101704976Y-82424654D01*
X101722219Y-82411866D01*
X101740632Y-82400830D01*
X101760038Y-82391651D01*
X101780250Y-82384419D01*
X101801074Y-82379203D01*
X101822309Y-82376053D01*
X101843750Y-82375000D01*
X102356250Y-82375000D01*
X102377691Y-82376053D01*
G37*
G36*
X99777691Y-83938553D02*
G01*
X99798926Y-83941703D01*
X99819750Y-83946919D01*
X99839962Y-83954151D01*
X99859368Y-83963330D01*
X99877781Y-83974366D01*
X99895024Y-83987154D01*
X99910930Y-84001570D01*
X99925346Y-84017476D01*
X99938134Y-84034719D01*
X99949170Y-84053132D01*
X99958349Y-84072538D01*
X99965581Y-84092750D01*
X99970797Y-84113574D01*
X99973947Y-84134809D01*
X99975000Y-84156250D01*
X99975000Y-84593750D01*
X99973947Y-84615191D01*
X99970797Y-84636426D01*
X99965581Y-84657250D01*
X99958349Y-84677462D01*
X99949170Y-84696868D01*
X99938134Y-84715281D01*
X99925346Y-84732524D01*
X99910930Y-84748430D01*
X99895024Y-84762846D01*
X99877781Y-84775634D01*
X99859368Y-84786670D01*
X99839962Y-84795849D01*
X99819750Y-84803081D01*
X99798926Y-84808297D01*
X99777691Y-84811447D01*
X99756250Y-84812500D01*
X99243750Y-84812500D01*
X99222309Y-84811447D01*
X99201074Y-84808297D01*
X99180250Y-84803081D01*
X99160038Y-84795849D01*
X99140632Y-84786670D01*
X99122219Y-84775634D01*
X99104976Y-84762846D01*
X99089070Y-84748430D01*
X99074654Y-84732524D01*
X99061866Y-84715281D01*
X99050830Y-84696868D01*
X99041651Y-84677462D01*
X99034419Y-84657250D01*
X99029203Y-84636426D01*
X99026053Y-84615191D01*
X99025000Y-84593750D01*
X99025000Y-84156250D01*
X99026053Y-84134809D01*
X99029203Y-84113574D01*
X99034419Y-84092750D01*
X99041651Y-84072538D01*
X99050830Y-84053132D01*
X99061866Y-84034719D01*
X99074654Y-84017476D01*
X99089070Y-84001570D01*
X99104976Y-83987154D01*
X99122219Y-83974366D01*
X99140632Y-83963330D01*
X99160038Y-83954151D01*
X99180250Y-83946919D01*
X99201074Y-83941703D01*
X99222309Y-83938553D01*
X99243750Y-83937500D01*
X99756250Y-83937500D01*
X99777691Y-83938553D01*
G37*
G36*
X99777691Y-82363553D02*
G01*
X99798926Y-82366703D01*
X99819750Y-82371919D01*
X99839962Y-82379151D01*
X99859368Y-82388330D01*
X99877781Y-82399366D01*
X99895024Y-82412154D01*
X99910930Y-82426570D01*
X99925346Y-82442476D01*
X99938134Y-82459719D01*
X99949170Y-82478132D01*
X99958349Y-82497538D01*
X99965581Y-82517750D01*
X99970797Y-82538574D01*
X99973947Y-82559809D01*
X99975000Y-82581250D01*
X99975000Y-83018750D01*
X99973947Y-83040191D01*
X99970797Y-83061426D01*
X99965581Y-83082250D01*
X99958349Y-83102462D01*
X99949170Y-83121868D01*
X99938134Y-83140281D01*
X99925346Y-83157524D01*
X99910930Y-83173430D01*
X99895024Y-83187846D01*
X99877781Y-83200634D01*
X99859368Y-83211670D01*
X99839962Y-83220849D01*
X99819750Y-83228081D01*
X99798926Y-83233297D01*
X99777691Y-83236447D01*
X99756250Y-83237500D01*
X99243750Y-83237500D01*
X99222309Y-83236447D01*
X99201074Y-83233297D01*
X99180250Y-83228081D01*
X99160038Y-83220849D01*
X99140632Y-83211670D01*
X99122219Y-83200634D01*
X99104976Y-83187846D01*
X99089070Y-83173430D01*
X99074654Y-83157524D01*
X99061866Y-83140281D01*
X99050830Y-83121868D01*
X99041651Y-83102462D01*
X99034419Y-83082250D01*
X99029203Y-83061426D01*
X99026053Y-83040191D01*
X99025000Y-83018750D01*
X99025000Y-82581250D01*
X99026053Y-82559809D01*
X99029203Y-82538574D01*
X99034419Y-82517750D01*
X99041651Y-82497538D01*
X99050830Y-82478132D01*
X99061866Y-82459719D01*
X99074654Y-82442476D01*
X99089070Y-82426570D01*
X99104976Y-82412154D01*
X99122219Y-82399366D01*
X99140632Y-82388330D01*
X99160038Y-82379151D01*
X99180250Y-82371919D01*
X99201074Y-82366703D01*
X99222309Y-82363553D01*
X99243750Y-82362500D01*
X99756250Y-82362500D01*
X99777691Y-82363553D01*
G37*
G36*
X97277691Y-83951053D02*
G01*
X97298926Y-83954203D01*
X97319750Y-83959419D01*
X97339962Y-83966651D01*
X97359368Y-83975830D01*
X97377781Y-83986866D01*
X97395024Y-83999654D01*
X97410930Y-84014070D01*
X97425346Y-84029976D01*
X97438134Y-84047219D01*
X97449170Y-84065632D01*
X97458349Y-84085038D01*
X97465581Y-84105250D01*
X97470797Y-84126074D01*
X97473947Y-84147309D01*
X97475000Y-84168750D01*
X97475000Y-84606250D01*
X97473947Y-84627691D01*
X97470797Y-84648926D01*
X97465581Y-84669750D01*
X97458349Y-84689962D01*
X97449170Y-84709368D01*
X97438134Y-84727781D01*
X97425346Y-84745024D01*
X97410930Y-84760930D01*
X97395024Y-84775346D01*
X97377781Y-84788134D01*
X97359368Y-84799170D01*
X97339962Y-84808349D01*
X97319750Y-84815581D01*
X97298926Y-84820797D01*
X97277691Y-84823947D01*
X97256250Y-84825000D01*
X96743750Y-84825000D01*
X96722309Y-84823947D01*
X96701074Y-84820797D01*
X96680250Y-84815581D01*
X96660038Y-84808349D01*
X96640632Y-84799170D01*
X96622219Y-84788134D01*
X96604976Y-84775346D01*
X96589070Y-84760930D01*
X96574654Y-84745024D01*
X96561866Y-84727781D01*
X96550830Y-84709368D01*
X96541651Y-84689962D01*
X96534419Y-84669750D01*
X96529203Y-84648926D01*
X96526053Y-84627691D01*
X96525000Y-84606250D01*
X96525000Y-84168750D01*
X96526053Y-84147309D01*
X96529203Y-84126074D01*
X96534419Y-84105250D01*
X96541651Y-84085038D01*
X96550830Y-84065632D01*
X96561866Y-84047219D01*
X96574654Y-84029976D01*
X96589070Y-84014070D01*
X96604976Y-83999654D01*
X96622219Y-83986866D01*
X96640632Y-83975830D01*
X96660038Y-83966651D01*
X96680250Y-83959419D01*
X96701074Y-83954203D01*
X96722309Y-83951053D01*
X96743750Y-83950000D01*
X97256250Y-83950000D01*
X97277691Y-83951053D01*
G37*
G36*
X97277691Y-82376053D02*
G01*
X97298926Y-82379203D01*
X97319750Y-82384419D01*
X97339962Y-82391651D01*
X97359368Y-82400830D01*
X97377781Y-82411866D01*
X97395024Y-82424654D01*
X97410930Y-82439070D01*
X97425346Y-82454976D01*
X97438134Y-82472219D01*
X97449170Y-82490632D01*
X97458349Y-82510038D01*
X97465581Y-82530250D01*
X97470797Y-82551074D01*
X97473947Y-82572309D01*
X97475000Y-82593750D01*
X97475000Y-83031250D01*
X97473947Y-83052691D01*
X97470797Y-83073926D01*
X97465581Y-83094750D01*
X97458349Y-83114962D01*
X97449170Y-83134368D01*
X97438134Y-83152781D01*
X97425346Y-83170024D01*
X97410930Y-83185930D01*
X97395024Y-83200346D01*
X97377781Y-83213134D01*
X97359368Y-83224170D01*
X97339962Y-83233349D01*
X97319750Y-83240581D01*
X97298926Y-83245797D01*
X97277691Y-83248947D01*
X97256250Y-83250000D01*
X96743750Y-83250000D01*
X96722309Y-83248947D01*
X96701074Y-83245797D01*
X96680250Y-83240581D01*
X96660038Y-83233349D01*
X96640632Y-83224170D01*
X96622219Y-83213134D01*
X96604976Y-83200346D01*
X96589070Y-83185930D01*
X96574654Y-83170024D01*
X96561866Y-83152781D01*
X96550830Y-83134368D01*
X96541651Y-83114962D01*
X96534419Y-83094750D01*
X96529203Y-83073926D01*
X96526053Y-83052691D01*
X96525000Y-83031250D01*
X96525000Y-82593750D01*
X96526053Y-82572309D01*
X96529203Y-82551074D01*
X96534419Y-82530250D01*
X96541651Y-82510038D01*
X96550830Y-82490632D01*
X96561866Y-82472219D01*
X96574654Y-82454976D01*
X96589070Y-82439070D01*
X96604976Y-82424654D01*
X96622219Y-82411866D01*
X96640632Y-82400830D01*
X96660038Y-82391651D01*
X96680250Y-82384419D01*
X96701074Y-82379203D01*
X96722309Y-82376053D01*
X96743750Y-82375000D01*
X97256250Y-82375000D01*
X97277691Y-82376053D01*
G37*
G36*
X94777691Y-83951053D02*
G01*
X94798926Y-83954203D01*
X94819750Y-83959419D01*
X94839962Y-83966651D01*
X94859368Y-83975830D01*
X94877781Y-83986866D01*
X94895024Y-83999654D01*
X94910930Y-84014070D01*
X94925346Y-84029976D01*
X94938134Y-84047219D01*
X94949170Y-84065632D01*
X94958349Y-84085038D01*
X94965581Y-84105250D01*
X94970797Y-84126074D01*
X94973947Y-84147309D01*
X94975000Y-84168750D01*
X94975000Y-84606250D01*
X94973947Y-84627691D01*
X94970797Y-84648926D01*
X94965581Y-84669750D01*
X94958349Y-84689962D01*
X94949170Y-84709368D01*
X94938134Y-84727781D01*
X94925346Y-84745024D01*
X94910930Y-84760930D01*
X94895024Y-84775346D01*
X94877781Y-84788134D01*
X94859368Y-84799170D01*
X94839962Y-84808349D01*
X94819750Y-84815581D01*
X94798926Y-84820797D01*
X94777691Y-84823947D01*
X94756250Y-84825000D01*
X94243750Y-84825000D01*
X94222309Y-84823947D01*
X94201074Y-84820797D01*
X94180250Y-84815581D01*
X94160038Y-84808349D01*
X94140632Y-84799170D01*
X94122219Y-84788134D01*
X94104976Y-84775346D01*
X94089070Y-84760930D01*
X94074654Y-84745024D01*
X94061866Y-84727781D01*
X94050830Y-84709368D01*
X94041651Y-84689962D01*
X94034419Y-84669750D01*
X94029203Y-84648926D01*
X94026053Y-84627691D01*
X94025000Y-84606250D01*
X94025000Y-84168750D01*
X94026053Y-84147309D01*
X94029203Y-84126074D01*
X94034419Y-84105250D01*
X94041651Y-84085038D01*
X94050830Y-84065632D01*
X94061866Y-84047219D01*
X94074654Y-84029976D01*
X94089070Y-84014070D01*
X94104976Y-83999654D01*
X94122219Y-83986866D01*
X94140632Y-83975830D01*
X94160038Y-83966651D01*
X94180250Y-83959419D01*
X94201074Y-83954203D01*
X94222309Y-83951053D01*
X94243750Y-83950000D01*
X94756250Y-83950000D01*
X94777691Y-83951053D01*
G37*
G36*
X94777691Y-82376053D02*
G01*
X94798926Y-82379203D01*
X94819750Y-82384419D01*
X94839962Y-82391651D01*
X94859368Y-82400830D01*
X94877781Y-82411866D01*
X94895024Y-82424654D01*
X94910930Y-82439070D01*
X94925346Y-82454976D01*
X94938134Y-82472219D01*
X94949170Y-82490632D01*
X94958349Y-82510038D01*
X94965581Y-82530250D01*
X94970797Y-82551074D01*
X94973947Y-82572309D01*
X94975000Y-82593750D01*
X94975000Y-83031250D01*
X94973947Y-83052691D01*
X94970797Y-83073926D01*
X94965581Y-83094750D01*
X94958349Y-83114962D01*
X94949170Y-83134368D01*
X94938134Y-83152781D01*
X94925346Y-83170024D01*
X94910930Y-83185930D01*
X94895024Y-83200346D01*
X94877781Y-83213134D01*
X94859368Y-83224170D01*
X94839962Y-83233349D01*
X94819750Y-83240581D01*
X94798926Y-83245797D01*
X94777691Y-83248947D01*
X94756250Y-83250000D01*
X94243750Y-83250000D01*
X94222309Y-83248947D01*
X94201074Y-83245797D01*
X94180250Y-83240581D01*
X94160038Y-83233349D01*
X94140632Y-83224170D01*
X94122219Y-83213134D01*
X94104976Y-83200346D01*
X94089070Y-83185930D01*
X94074654Y-83170024D01*
X94061866Y-83152781D01*
X94050830Y-83134368D01*
X94041651Y-83114962D01*
X94034419Y-83094750D01*
X94029203Y-83073926D01*
X94026053Y-83052691D01*
X94025000Y-83031250D01*
X94025000Y-82593750D01*
X94026053Y-82572309D01*
X94029203Y-82551074D01*
X94034419Y-82530250D01*
X94041651Y-82510038D01*
X94050830Y-82490632D01*
X94061866Y-82472219D01*
X94074654Y-82454976D01*
X94089070Y-82439070D01*
X94104976Y-82424654D01*
X94122219Y-82411866D01*
X94140632Y-82400830D01*
X94160038Y-82391651D01*
X94180250Y-82384419D01*
X94201074Y-82379203D01*
X94222309Y-82376053D01*
X94243750Y-82375000D01*
X94756250Y-82375000D01*
X94777691Y-82376053D01*
G37*
G36*
X92177691Y-83951053D02*
G01*
X92198926Y-83954203D01*
X92219750Y-83959419D01*
X92239962Y-83966651D01*
X92259368Y-83975830D01*
X92277781Y-83986866D01*
X92295024Y-83999654D01*
X92310930Y-84014070D01*
X92325346Y-84029976D01*
X92338134Y-84047219D01*
X92349170Y-84065632D01*
X92358349Y-84085038D01*
X92365581Y-84105250D01*
X92370797Y-84126074D01*
X92373947Y-84147309D01*
X92375000Y-84168750D01*
X92375000Y-84606250D01*
X92373947Y-84627691D01*
X92370797Y-84648926D01*
X92365581Y-84669750D01*
X92358349Y-84689962D01*
X92349170Y-84709368D01*
X92338134Y-84727781D01*
X92325346Y-84745024D01*
X92310930Y-84760930D01*
X92295024Y-84775346D01*
X92277781Y-84788134D01*
X92259368Y-84799170D01*
X92239962Y-84808349D01*
X92219750Y-84815581D01*
X92198926Y-84820797D01*
X92177691Y-84823947D01*
X92156250Y-84825000D01*
X91643750Y-84825000D01*
X91622309Y-84823947D01*
X91601074Y-84820797D01*
X91580250Y-84815581D01*
X91560038Y-84808349D01*
X91540632Y-84799170D01*
X91522219Y-84788134D01*
X91504976Y-84775346D01*
X91489070Y-84760930D01*
X91474654Y-84745024D01*
X91461866Y-84727781D01*
X91450830Y-84709368D01*
X91441651Y-84689962D01*
X91434419Y-84669750D01*
X91429203Y-84648926D01*
X91426053Y-84627691D01*
X91425000Y-84606250D01*
X91425000Y-84168750D01*
X91426053Y-84147309D01*
X91429203Y-84126074D01*
X91434419Y-84105250D01*
X91441651Y-84085038D01*
X91450830Y-84065632D01*
X91461866Y-84047219D01*
X91474654Y-84029976D01*
X91489070Y-84014070D01*
X91504976Y-83999654D01*
X91522219Y-83986866D01*
X91540632Y-83975830D01*
X91560038Y-83966651D01*
X91580250Y-83959419D01*
X91601074Y-83954203D01*
X91622309Y-83951053D01*
X91643750Y-83950000D01*
X92156250Y-83950000D01*
X92177691Y-83951053D01*
G37*
G36*
X92177691Y-82376053D02*
G01*
X92198926Y-82379203D01*
X92219750Y-82384419D01*
X92239962Y-82391651D01*
X92259368Y-82400830D01*
X92277781Y-82411866D01*
X92295024Y-82424654D01*
X92310930Y-82439070D01*
X92325346Y-82454976D01*
X92338134Y-82472219D01*
X92349170Y-82490632D01*
X92358349Y-82510038D01*
X92365581Y-82530250D01*
X92370797Y-82551074D01*
X92373947Y-82572309D01*
X92375000Y-82593750D01*
X92375000Y-83031250D01*
X92373947Y-83052691D01*
X92370797Y-83073926D01*
X92365581Y-83094750D01*
X92358349Y-83114962D01*
X92349170Y-83134368D01*
X92338134Y-83152781D01*
X92325346Y-83170024D01*
X92310930Y-83185930D01*
X92295024Y-83200346D01*
X92277781Y-83213134D01*
X92259368Y-83224170D01*
X92239962Y-83233349D01*
X92219750Y-83240581D01*
X92198926Y-83245797D01*
X92177691Y-83248947D01*
X92156250Y-83250000D01*
X91643750Y-83250000D01*
X91622309Y-83248947D01*
X91601074Y-83245797D01*
X91580250Y-83240581D01*
X91560038Y-83233349D01*
X91540632Y-83224170D01*
X91522219Y-83213134D01*
X91504976Y-83200346D01*
X91489070Y-83185930D01*
X91474654Y-83170024D01*
X91461866Y-83152781D01*
X91450830Y-83134368D01*
X91441651Y-83114962D01*
X91434419Y-83094750D01*
X91429203Y-83073926D01*
X91426053Y-83052691D01*
X91425000Y-83031250D01*
X91425000Y-82593750D01*
X91426053Y-82572309D01*
X91429203Y-82551074D01*
X91434419Y-82530250D01*
X91441651Y-82510038D01*
X91450830Y-82490632D01*
X91461866Y-82472219D01*
X91474654Y-82454976D01*
X91489070Y-82439070D01*
X91504976Y-82424654D01*
X91522219Y-82411866D01*
X91540632Y-82400830D01*
X91560038Y-82391651D01*
X91580250Y-82384419D01*
X91601074Y-82379203D01*
X91622309Y-82376053D01*
X91643750Y-82375000D01*
X92156250Y-82375000D01*
X92177691Y-82376053D01*
G37*
M02*
