M48
; DRILL file {KiCad (5.1.5)-3} date 1.7.2021 18.35.29
; FORMAT={-:-/ absolute / inch / decimal}
; #@! TF.CreationDate,2021-07-01T18:35:29+03:00
; #@! TF.GenerationSoftware,Kicad,Pcbnew,(5.1.5)-3
; #@! TF.FileFunction,Plated,1,2,PTH
FMAT,2
INCH
T1C0.0157
T2C0.0394
%
G90
G05
T1
X3.6181Y-3.0709
X3.8583Y-3.2037
X3.9592Y-3.2008
X4.0984Y-2.5197
X4.1181Y-3.189
X4.189Y-3.2156
X4.3307Y-2.4803
X4.3701Y-2.4016
X4.3996Y-3.0217
X4.4094Y-2.4409
X4.4094Y-2.9528
X4.4488Y-2.9134
X4.5276Y-2.4016
X4.6181Y-2.3622
X5.187Y-2.9035
X5.3189Y-3.3701
X5.4094Y-2.9783
X5.4173Y-3.3701
T2
X3.6079Y-2.6417
X3.6079Y-2.7417
X3.7079Y-2.6417
X3.7079Y-2.7417
X3.8079Y-2.6417
X3.8079Y-2.7417
X3.9079Y-2.6417
X3.9079Y-2.7417
X4.0079Y-2.6417
X4.0079Y-2.7417
X4.1079Y-2.6417
X4.1079Y-2.7417
X4.2079Y-2.6417
X4.2079Y-2.7417
X4.3079Y-2.6417
X4.3079Y-2.7417
X4.4079Y-2.6417
X4.4079Y-2.7417
X4.5079Y-2.6417
X4.5079Y-2.7417
X4.6079Y-2.6417
X4.6079Y-2.7417
X4.7079Y-2.6417
X4.7079Y-2.7417
X4.8079Y-2.6417
X4.8079Y-2.7417
X4.9079Y-2.6417
X4.9079Y-2.7417
X5.0079Y-2.6417
X5.0079Y-2.7417
X5.1079Y-2.6417
X5.1079Y-2.7417
X5.2079Y-2.6417
X5.2079Y-2.7417
X5.3079Y-2.6417
X5.3079Y-2.7417
X5.4079Y-2.6417
X5.4079Y-2.7417
X5.5079Y-2.6417
X5.5079Y-2.7417
T0
M30
