G04 #@! TF.GenerationSoftware,KiCad,Pcbnew,(5.1.5)-3*
G04 #@! TF.CreationDate,2021-07-01T18:35:26+03:00*
G04 #@! TF.ProjectId,ISARPi,49534152-5069-42e6-9b69-6361645f7063,rev?*
G04 #@! TF.SameCoordinates,Original*
G04 #@! TF.FileFunction,Copper,L2,Bot*
G04 #@! TF.FilePolarity,Positive*
%FSLAX46Y46*%
G04 Gerber Fmt 4.6, Leading zero omitted, Abs format (unit mm)*
G04 Created by KiCad (PCBNEW (5.1.5)-3) date 2021-07-01 18:35:26*
%MOMM*%
%LPD*%
G04 APERTURE LIST*
%ADD10O,1.700000X1.700000*%
%ADD11R,1.700000X1.700000*%
%ADD12R,1.524000X6.858000*%
%ADD13C,0.800000*%
%ADD14C,1.000000*%
%ADD15C,0.300000*%
%ADD16C,0.250000*%
G04 APERTURE END LIST*
D10*
X91640000Y-69640000D03*
X91640000Y-67100000D03*
X94180000Y-69640000D03*
X94180000Y-67100000D03*
X96720000Y-69640000D03*
X96720000Y-67100000D03*
X99260000Y-69640000D03*
X99260000Y-67100000D03*
X101800000Y-69640000D03*
X101800000Y-67100000D03*
X104340000Y-69640000D03*
X104340000Y-67100000D03*
X106880000Y-69640000D03*
X106880000Y-67100000D03*
X109420000Y-69640000D03*
X109420000Y-67100000D03*
X111960000Y-69640000D03*
X111960000Y-67100000D03*
X114500000Y-69640000D03*
X114500000Y-67100000D03*
X117040000Y-69640000D03*
X117040000Y-67100000D03*
X119580000Y-69640000D03*
X119580000Y-67100000D03*
X122120000Y-69640000D03*
X122120000Y-67100000D03*
X124660000Y-69640000D03*
X124660000Y-67100000D03*
X127200000Y-69640000D03*
X127200000Y-67100000D03*
X129740000Y-69640000D03*
X129740000Y-67100000D03*
X132280000Y-69640000D03*
X132280000Y-67100000D03*
X134820000Y-69640000D03*
X134820000Y-67100000D03*
X137360000Y-69640000D03*
X137360000Y-67100000D03*
X139900000Y-69640000D03*
D11*
X139900000Y-67100000D03*
D12*
X91900000Y-90381000D03*
X94440000Y-90381000D03*
X96980000Y-90381000D03*
X99520000Y-90381000D03*
X102060000Y-90381000D03*
X104600000Y-90381000D03*
X107140000Y-90381000D03*
X109680000Y-90381000D03*
X112220000Y-90381000D03*
X114760000Y-90381000D03*
X117300000Y-90381000D03*
X119840000Y-90381000D03*
X122380000Y-90381000D03*
X124920000Y-90381000D03*
X127460000Y-90381000D03*
X130000000Y-90381000D03*
X132540000Y-90381000D03*
X135080000Y-90381000D03*
X137620000Y-90381000D03*
X140160000Y-90381000D03*
X142700000Y-90381000D03*
X145240000Y-90381000D03*
X147780000Y-90381000D03*
X150320000Y-90381000D03*
X152860000Y-90381000D03*
X155400000Y-90381000D03*
X157940000Y-90381000D03*
X160480000Y-90381000D03*
X163020000Y-90381000D03*
X165560000Y-90381000D03*
X168100000Y-90381000D03*
D13*
X131750000Y-73750000D03*
X137400000Y-75650000D03*
X135100000Y-85600000D03*
X137600000Y-85600000D03*
X91900000Y-78000000D03*
X104100000Y-64000000D03*
X111750000Y-76750000D03*
X113000000Y-74000000D03*
X110000000Y-63000000D03*
X112000000Y-62000000D03*
X111000000Y-61000000D03*
X115000000Y-61000000D03*
X117300000Y-60000000D03*
X106400000Y-81675000D03*
X104600000Y-81000000D03*
X100562500Y-81300000D03*
X98000000Y-81375000D03*
X112000000Y-75000000D03*
D14*
X134820000Y-75532000D02*
X134820000Y-70842081D01*
X134820000Y-70842081D02*
X134820000Y-69640000D01*
X145240000Y-85952000D02*
X134820000Y-75532000D01*
X145240000Y-90381000D02*
X145240000Y-85952000D01*
X97709999Y-71190001D02*
X98410001Y-70489999D01*
X98410001Y-70489999D02*
X99260000Y-69640000D01*
X97081997Y-71190001D02*
X97709999Y-71190001D01*
X90799999Y-77471999D02*
X97081997Y-71190001D01*
X91900000Y-85952000D02*
X90799999Y-84851999D01*
X90799999Y-84851999D02*
X90799999Y-77471999D01*
X91900000Y-90381000D02*
X91900000Y-85952000D01*
D15*
X136020001Y-66663997D02*
X136020001Y-68439999D01*
X135669999Y-68790001D02*
X134820000Y-69640000D01*
X136783999Y-65899999D02*
X136020001Y-66663997D01*
X147347999Y-65899999D02*
X136783999Y-65899999D01*
X136020001Y-68439999D02*
X135669999Y-68790001D01*
X168100000Y-86652000D02*
X147347999Y-65899999D01*
X168100000Y-90381000D02*
X168100000Y-86652000D01*
X130589999Y-67949999D02*
X129740000Y-67100000D01*
X130589999Y-68621763D02*
X130589999Y-67949999D01*
X130940001Y-68971765D02*
X130589999Y-68621763D01*
X131703999Y-70840001D02*
X130940001Y-70076003D01*
X133619999Y-70840001D02*
X131703999Y-70840001D01*
X130940001Y-70076003D02*
X130940001Y-68971765D01*
X134820000Y-69640000D02*
X133619999Y-70840001D01*
X92489999Y-67949999D02*
X91640000Y-67100000D01*
X92840001Y-68300001D02*
X92489999Y-67949999D01*
X97156003Y-68300001D02*
X92840001Y-68300001D01*
X98496002Y-69640000D02*
X97156003Y-68300001D01*
X99260000Y-69640000D02*
X98496002Y-69640000D01*
X100460001Y-68439999D02*
X103139999Y-68439999D01*
X99260000Y-69640000D02*
X100460001Y-68439999D01*
X103490001Y-68790001D02*
X104340000Y-69640000D01*
X103139999Y-66523999D02*
X103139999Y-68439999D01*
X103763999Y-65899999D02*
X103139999Y-66523999D01*
X108219999Y-65899999D02*
X103763999Y-65899999D01*
X103139999Y-68439999D02*
X103490001Y-68790001D01*
X109420000Y-67100000D02*
X108219999Y-65899999D01*
D14*
X141102081Y-69640000D02*
X139900000Y-69640000D01*
X146708000Y-69640000D02*
X141102081Y-69640000D01*
X163020000Y-85952000D02*
X146708000Y-69640000D01*
X163020000Y-90381000D02*
X163020000Y-85952000D01*
X101674997Y-82775001D02*
X122724999Y-82775001D01*
X96980000Y-90381000D02*
X96980000Y-87469998D01*
X96980000Y-87469998D02*
X101674997Y-82775001D01*
X122724999Y-82775001D02*
X131750000Y-73750000D01*
X131750000Y-73750000D02*
X131750000Y-73750000D01*
X137400000Y-69680000D02*
X137360000Y-69640000D01*
X137400000Y-75650000D02*
X137400000Y-69680000D01*
D16*
X135080000Y-86702000D02*
X135100000Y-86682000D01*
X135080000Y-90381000D02*
X135080000Y-86702000D01*
X135100000Y-86682000D02*
X135100000Y-85600000D01*
X135100000Y-85600000D02*
X135100000Y-85600000D01*
X137620000Y-86702000D02*
X137600000Y-86682000D01*
X137620000Y-90381000D02*
X137620000Y-86702000D01*
X137600000Y-86682000D02*
X137600000Y-85600000D01*
X137600000Y-85600000D02*
X137600000Y-85600000D01*
X93440000Y-78000000D02*
X101800000Y-69640000D01*
X91900000Y-78000000D02*
X93440000Y-78000000D01*
X104100000Y-64800000D02*
X101800000Y-67100000D01*
X104100000Y-64000000D02*
X104100000Y-64800000D01*
X105189999Y-67949999D02*
X104340000Y-67100000D01*
X105515001Y-68275001D02*
X105189999Y-67949999D01*
X105515001Y-70515001D02*
X105515001Y-68275001D01*
X111750000Y-76750000D02*
X105515001Y-70515001D01*
X107729999Y-67949999D02*
X106880000Y-67100000D01*
X108055001Y-70014003D02*
X108055001Y-68275001D01*
X112040998Y-74000000D02*
X108055001Y-70014003D01*
X108055001Y-68275001D02*
X107729999Y-67949999D01*
X113000000Y-74000000D02*
X112040998Y-74000000D01*
X110269999Y-68790001D02*
X109420000Y-69640000D01*
X110595001Y-68464999D02*
X110269999Y-68790001D01*
X110595001Y-63595001D02*
X110595001Y-68464999D01*
X110000000Y-63000000D02*
X110595001Y-63595001D01*
X112809999Y-68790001D02*
X111960000Y-69640000D01*
X113135001Y-68464999D02*
X112809999Y-68790001D01*
X113135001Y-66535999D02*
X113135001Y-68464999D01*
X111600001Y-65000999D02*
X113135001Y-66535999D01*
X111600001Y-62399999D02*
X111600001Y-65000999D01*
X112000000Y-62000000D02*
X111600001Y-62399999D01*
X111110001Y-61675686D02*
X111110001Y-66250001D01*
X111110001Y-66250001D02*
X111960000Y-67100000D01*
X111000000Y-61565685D02*
X111110001Y-61675686D01*
X111000000Y-61000000D02*
X111000000Y-61565685D01*
X115000000Y-66600000D02*
X114500000Y-67100000D01*
X115000000Y-61000000D02*
X115000000Y-66600000D01*
X117300000Y-66840000D02*
X117040000Y-67100000D01*
X117300000Y-60000000D02*
X117300000Y-66840000D01*
X115165000Y-81675000D02*
X127200000Y-69640000D01*
X106400000Y-81675000D02*
X115165000Y-81675000D01*
X126350001Y-67949999D02*
X127200000Y-67100000D01*
X104600000Y-81000000D02*
X104999999Y-80600001D01*
X126024999Y-68275001D02*
X126350001Y-67949999D01*
X104999999Y-80600001D02*
X115603589Y-80600001D01*
X115603589Y-80600001D02*
X126024999Y-70178591D01*
X126024999Y-70178591D02*
X126024999Y-68275001D01*
X100562500Y-81300000D02*
X101712509Y-80149991D01*
X126635999Y-65924999D02*
X127764001Y-65924999D01*
X126024999Y-66535999D02*
X126635999Y-65924999D01*
X126024999Y-67474003D02*
X126024999Y-66535999D01*
X128564999Y-68464999D02*
X128890001Y-68790001D01*
X125224001Y-68275001D02*
X126024999Y-67474003D01*
X124285997Y-68275001D02*
X125224001Y-68275001D01*
X123484999Y-69075999D02*
X124285997Y-68275001D01*
X128564999Y-66725997D02*
X128564999Y-68464999D01*
X123484999Y-70204001D02*
X123484999Y-69075999D01*
X127764001Y-65924999D02*
X128564999Y-66725997D01*
X113539009Y-80149991D02*
X123484999Y-70204001D01*
X128890001Y-68790001D02*
X129740000Y-69640000D01*
X101712509Y-80149991D02*
X113539009Y-80149991D01*
X131104999Y-68464999D02*
X131430001Y-68790001D01*
X131104999Y-66725997D02*
X131104999Y-68464999D01*
X129853991Y-65474989D02*
X131104999Y-66725997D01*
X124546009Y-65474989D02*
X129853991Y-65474989D01*
X123484999Y-66535999D02*
X124546009Y-65474989D01*
X122873999Y-68275001D02*
X123484999Y-67664001D01*
X121745997Y-68275001D02*
X122873999Y-68275001D01*
X120944999Y-69075999D02*
X121745997Y-68275001D01*
X120944999Y-70155001D02*
X120944999Y-69075999D01*
X111400019Y-79699981D02*
X120944999Y-70155001D01*
X123484999Y-67664001D02*
X123484999Y-66535999D01*
X99675019Y-79699981D02*
X111400019Y-79699981D01*
X131430001Y-68790001D02*
X132280000Y-69640000D01*
X98000000Y-81375000D02*
X99675019Y-79699981D01*
X106880000Y-69880000D02*
X106880000Y-69640000D01*
X112000000Y-75000000D02*
X106880000Y-69880000D01*
M02*
